%TF.GenerationSoftware,KiCad,Pcbnew,7.0.5*%
%TF.CreationDate,2023-07-18T08:52:37+01:00*%
%TF.ProjectId,rbuttons,72627574-746f-46e7-932e-6b696361645f,rev?*%
%TF.SameCoordinates,Original*%
%TF.FileFunction,Copper,L2,Bot*%
%TF.FilePolarity,Positive*%
%FSLAX46Y46*%
G04 Gerber Fmt 4.6, Leading zero omitted, Abs format (unit mm)*
G04 Created by KiCad (PCBNEW 7.0.5) date 2023-07-18 08:52:37*
%MOMM*%
%LPD*%
G01*
G04 APERTURE LIST*
G04 Aperture macros list*
%AMFreePoly0*
4,1,5,0.125000,-9.000000,-0.125000,-9.000000,-0.125000,1.000000,0.125000,1.000000,0.125000,-9.000000,0.125000,-9.000000,$1*%
G04 Aperture macros list end*
%TA.AperFunction,SMDPad,CuDef*%
%ADD10R,1.000000X0.900000*%
%TD*%
%TA.AperFunction,SMDPad,CuDef*%
%ADD11FreePoly0,0.000000*%
%TD*%
%TA.AperFunction,SMDPad,CuDef*%
%ADD12R,0.250000X4.000000*%
%TD*%
%TA.AperFunction,ViaPad*%
%ADD13C,0.800000*%
%TD*%
%TA.AperFunction,Conductor*%
%ADD14C,0.250000*%
%TD*%
G04 APERTURE END LIST*
D10*
%TO.P,U2,1,1*%
%TO.N,/R1*%
X77000000Y-111750000D03*
%TO.P,U2,2,2*%
%TO.N,/gnd*%
X77000000Y-115650178D03*
%TO.P,U2,3,3*%
%TO.N,/R1*%
X73139954Y-111750000D03*
%TO.P,U2,4,4*%
%TO.N,/gnd*%
X73139954Y-115650178D03*
%TD*%
%TO.P,U5,1,1*%
%TO.N,/cross*%
X115430023Y-112800038D03*
%TO.P,U5,2,2*%
%TO.N,/gnd*%
X115430023Y-116700216D03*
%TO.P,U5,3,3*%
%TO.N,/cross*%
X111569977Y-112800038D03*
%TO.P,U5,4,4*%
%TO.N,/gnd*%
X111569977Y-116700216D03*
%TD*%
%TO.P,U3,1,1*%
%TO.N,/Triangle*%
X95680023Y-112550038D03*
%TO.P,U3,2,2*%
%TO.N,/gnd*%
X95680023Y-116450216D03*
%TO.P,U3,3,3*%
%TO.N,/Triangle*%
X91819977Y-112550038D03*
%TO.P,U3,4,4*%
%TO.N,/gnd*%
X91819977Y-116450216D03*
%TD*%
D11*
%TO.P,C2,1,1*%
%TO.N,unconnected-(C2-Pad1)*%
X127250000Y-111500000D03*
%TO.P,C2,2,2*%
%TO.N,/five*%
X127750000Y-111500000D03*
%TO.P,C2,3,3*%
%TO.N,/four*%
X128250000Y-111500000D03*
%TO.P,C2,4,4*%
%TO.N,/three*%
X128750000Y-111500000D03*
%TO.P,C2,5,5*%
%TO.N,/tw*%
X129250000Y-111500000D03*
%TO.P,C2,6,6*%
%TO.N,/one*%
X129750000Y-111500000D03*
%TO.P,C2,7,7*%
%TO.N,/gnd*%
X130250000Y-111500000D03*
%TO.P,C2,8,8*%
X130750000Y-111500000D03*
%TD*%
D12*
%TO.P,C1,1,1*%
%TO.N,/Square*%
X105750000Y-67075000D03*
%TO.P,C1,2,2*%
%TO.N,/R1*%
X105250000Y-67075000D03*
%TO.P,C1,3,3*%
%TO.N,/Triangle*%
X104750000Y-67075000D03*
%TO.P,C1,4,4*%
%TO.N,/Circle*%
X104250000Y-67075000D03*
%TO.P,C1,5,5*%
%TO.N,/cross*%
X103750000Y-67075000D03*
%TO.P,C1,6,6*%
%TO.N,/gnd*%
X103250000Y-67075000D03*
%TO.P,C1,7,7*%
X102750000Y-67075000D03*
%TO.P,C1,8,8*%
X102250000Y-67075000D03*
%TO.P,C1,9,9*%
X101750000Y-67075000D03*
%TO.P,C1,10,10*%
%TO.N,/one*%
X101250000Y-67075000D03*
%TO.P,C1,11,11*%
%TO.N,/tw*%
X100750000Y-67075000D03*
%TO.P,C1,12,12*%
%TO.N,/three*%
X100250000Y-67075000D03*
%TO.P,C1,13,13*%
%TO.N,/four*%
X99750000Y-67075000D03*
%TO.P,C1,14,14*%
%TO.N,/five*%
X99250000Y-67075000D03*
%TD*%
D10*
%TO.P,U1,1,1*%
%TO.N,/Square*%
X105680023Y-103050038D03*
%TO.P,U1,2,2*%
%TO.N,/gnd*%
X105680023Y-106950216D03*
%TO.P,U1,3,3*%
%TO.N,/Square*%
X101819977Y-103050038D03*
%TO.P,U1,4,4*%
%TO.N,/gnd*%
X101819977Y-106950216D03*
%TD*%
%TO.P,U4,1,1*%
%TO.N,/Circle*%
X105430023Y-122550038D03*
%TO.P,U4,2,2*%
%TO.N,/gnd*%
X105430023Y-126450216D03*
%TO.P,U4,3,3*%
%TO.N,/Circle*%
X101569977Y-122550038D03*
%TO.P,U4,4,4*%
%TO.N,/gnd*%
X101569977Y-126450216D03*
%TD*%
D13*
%TO.N,/Square*%
X111750000Y-91250000D03*
%TO.N,/R1*%
X112750000Y-90750000D03*
%TO.N,/Triangle*%
X113750000Y-90500000D03*
%TO.N,/Circle*%
X101250000Y-120500000D03*
X111000000Y-107250000D03*
X114750000Y-90000000D03*
%TO.N,/cross*%
X115750000Y-89250000D03*
%TO.N,/gnd*%
X116500000Y-88500000D03*
%TD*%
D14*
%TO.N,/Square*%
X105680023Y-103050038D02*
X107300038Y-103050038D01*
X101819977Y-103050038D02*
X105680023Y-103050038D01*
X111750000Y-91250000D02*
X111750000Y-101000000D01*
X107300038Y-103050038D02*
X107500000Y-103250000D01*
X111750000Y-101000000D02*
X109500000Y-103250000D01*
X109500000Y-103250000D02*
X107500000Y-103250000D01*
%TO.N,/R1*%
X99750000Y-105750000D02*
X99750000Y-107750000D01*
X78750000Y-116500000D02*
X78750000Y-113500000D01*
X99750000Y-107750000D02*
X96000000Y-111500000D01*
X81750000Y-117250000D02*
X79500000Y-117250000D01*
X112750000Y-102750000D02*
X110500000Y-105000000D01*
X112750000Y-90750000D02*
X112750000Y-102750000D01*
X77000000Y-111750000D02*
X73139954Y-111750000D01*
X90500000Y-111500000D02*
X86500000Y-115500000D01*
X77000000Y-111750000D02*
X78750000Y-113500000D01*
X110500000Y-105000000D02*
X100500000Y-105000000D01*
X79500000Y-117250000D02*
X78750000Y-116500000D01*
X86500000Y-115500000D02*
X81750000Y-117250000D01*
X96000000Y-111500000D02*
X90500000Y-111500000D01*
X100500000Y-105000000D02*
X99750000Y-105750000D01*
%TO.N,/Triangle*%
X113750000Y-102500000D02*
X110750000Y-105500000D01*
X100750000Y-105500000D02*
X100250000Y-106000000D01*
X91819977Y-112550038D02*
X95680023Y-112550038D01*
X100250000Y-107980061D02*
X95680023Y-112550038D01*
X113750000Y-90500000D02*
X113750000Y-102500000D01*
X110750000Y-105500000D02*
X100750000Y-105500000D01*
X100250000Y-106000000D02*
X100250000Y-107980061D01*
%TO.N,/Circle*%
X101250000Y-120500000D02*
X101250000Y-122230061D01*
X112750000Y-107250000D02*
X114750000Y-105250000D01*
X112750000Y-107250000D02*
X111000000Y-107250000D01*
X101250000Y-122230061D02*
X101569977Y-122550038D01*
X101569977Y-122550038D02*
X105430023Y-122550038D01*
X114750000Y-90000000D02*
X114750000Y-105250000D01*
%TO.N,/cross*%
X115750000Y-89250000D02*
X115750000Y-112480061D01*
X115750000Y-112480061D02*
X115430023Y-112800038D01*
X111569977Y-112800038D02*
X115430023Y-112800038D01*
%TO.N,/gnd*%
X95950216Y-116450216D02*
X95680023Y-116450216D01*
X108299784Y-126450216D02*
X111569977Y-123180023D01*
X87250000Y-116250000D02*
X91819977Y-116450216D01*
X95680023Y-116450216D02*
X91819977Y-116450216D01*
X116500000Y-88500000D02*
X116500000Y-108250000D01*
X81250000Y-118000000D02*
X87250000Y-116250000D01*
X111569977Y-123180023D02*
X111569977Y-116700216D01*
X79349822Y-118000000D02*
X81250000Y-118000000D01*
X100000000Y-124880239D02*
X100000000Y-120500000D01*
X105680023Y-106950216D02*
X105680023Y-110810262D01*
X73139954Y-115650178D02*
X77000000Y-115650178D01*
X77000000Y-115650178D02*
X79349822Y-118000000D01*
X105430023Y-126450216D02*
X101569977Y-126450216D01*
X105430023Y-126450216D02*
X108299784Y-126450216D01*
X100000000Y-120500000D02*
X95950216Y-116450216D01*
X117250000Y-109000000D02*
X117250000Y-114880239D01*
X105680023Y-110810262D02*
X111569977Y-116700216D01*
X117250000Y-114880239D02*
X115430023Y-116700216D01*
X116500000Y-108250000D02*
X117250000Y-109000000D01*
X111569977Y-116700216D02*
X115430023Y-116700216D01*
X101819977Y-106950216D02*
X105680023Y-106950216D01*
X101569977Y-126450216D02*
X100000000Y-124880239D01*
%TD*%
M02*
