%TF.GenerationSoftware,KiCad,Pcbnew,7.0.5*%
%TF.CreationDate,2023-07-18T08:52:37+01:00*%
%TF.ProjectId,rbuttons,72627574-746f-46e7-932e-6b696361645f,rev?*%
%TF.SameCoordinates,Original*%
%TF.FileFunction,Legend,Bot*%
%TF.FilePolarity,Positive*%
%FSLAX46Y46*%
G04 Gerber Fmt 4.6, Leading zero omitted, Abs format (unit mm)*
G04 Created by KiCad (PCBNEW 7.0.5) date 2023-07-18 08:52:37*
%MOMM*%
%LPD*%
G01*
G04 APERTURE LIST*
%ADD10C,0.150000*%
%ADD11C,0.254000*%
%ADD12C,0.059995*%
%ADD13C,0.120000*%
G04 APERTURE END LIST*
D10*
%TO.C,U2*%
X75831881Y-108754730D02*
X75831881Y-109564253D01*
X75831881Y-109564253D02*
X75784262Y-109659491D01*
X75784262Y-109659491D02*
X75736643Y-109707111D01*
X75736643Y-109707111D02*
X75641405Y-109754730D01*
X75641405Y-109754730D02*
X75450929Y-109754730D01*
X75450929Y-109754730D02*
X75355691Y-109707111D01*
X75355691Y-109707111D02*
X75308072Y-109659491D01*
X75308072Y-109659491D02*
X75260453Y-109564253D01*
X75260453Y-109564253D02*
X75260453Y-108754730D01*
X74831881Y-108849968D02*
X74784262Y-108802349D01*
X74784262Y-108802349D02*
X74689024Y-108754730D01*
X74689024Y-108754730D02*
X74450929Y-108754730D01*
X74450929Y-108754730D02*
X74355691Y-108802349D01*
X74355691Y-108802349D02*
X74308072Y-108849968D01*
X74308072Y-108849968D02*
X74260453Y-108945206D01*
X74260453Y-108945206D02*
X74260453Y-109040444D01*
X74260453Y-109040444D02*
X74308072Y-109183301D01*
X74308072Y-109183301D02*
X74879500Y-109754730D01*
X74879500Y-109754730D02*
X74260453Y-109754730D01*
%TO.C,U5*%
X114261904Y-109804768D02*
X114261904Y-110614291D01*
X114261904Y-110614291D02*
X114214285Y-110709529D01*
X114214285Y-110709529D02*
X114166666Y-110757149D01*
X114166666Y-110757149D02*
X114071428Y-110804768D01*
X114071428Y-110804768D02*
X113880952Y-110804768D01*
X113880952Y-110804768D02*
X113785714Y-110757149D01*
X113785714Y-110757149D02*
X113738095Y-110709529D01*
X113738095Y-110709529D02*
X113690476Y-110614291D01*
X113690476Y-110614291D02*
X113690476Y-109804768D01*
X112738095Y-109804768D02*
X113214285Y-109804768D01*
X113214285Y-109804768D02*
X113261904Y-110280958D01*
X113261904Y-110280958D02*
X113214285Y-110233339D01*
X113214285Y-110233339D02*
X113119047Y-110185720D01*
X113119047Y-110185720D02*
X112880952Y-110185720D01*
X112880952Y-110185720D02*
X112785714Y-110233339D01*
X112785714Y-110233339D02*
X112738095Y-110280958D01*
X112738095Y-110280958D02*
X112690476Y-110376196D01*
X112690476Y-110376196D02*
X112690476Y-110614291D01*
X112690476Y-110614291D02*
X112738095Y-110709529D01*
X112738095Y-110709529D02*
X112785714Y-110757149D01*
X112785714Y-110757149D02*
X112880952Y-110804768D01*
X112880952Y-110804768D02*
X113119047Y-110804768D01*
X113119047Y-110804768D02*
X113214285Y-110757149D01*
X113214285Y-110757149D02*
X113261904Y-110709529D01*
%TO.C,U3*%
X94511904Y-109554768D02*
X94511904Y-110364291D01*
X94511904Y-110364291D02*
X94464285Y-110459529D01*
X94464285Y-110459529D02*
X94416666Y-110507149D01*
X94416666Y-110507149D02*
X94321428Y-110554768D01*
X94321428Y-110554768D02*
X94130952Y-110554768D01*
X94130952Y-110554768D02*
X94035714Y-110507149D01*
X94035714Y-110507149D02*
X93988095Y-110459529D01*
X93988095Y-110459529D02*
X93940476Y-110364291D01*
X93940476Y-110364291D02*
X93940476Y-109554768D01*
X93559523Y-109554768D02*
X92940476Y-109554768D01*
X92940476Y-109554768D02*
X93273809Y-109935720D01*
X93273809Y-109935720D02*
X93130952Y-109935720D01*
X93130952Y-109935720D02*
X93035714Y-109983339D01*
X93035714Y-109983339D02*
X92988095Y-110030958D01*
X92988095Y-110030958D02*
X92940476Y-110126196D01*
X92940476Y-110126196D02*
X92940476Y-110364291D01*
X92940476Y-110364291D02*
X92988095Y-110459529D01*
X92988095Y-110459529D02*
X93035714Y-110507149D01*
X93035714Y-110507149D02*
X93130952Y-110554768D01*
X93130952Y-110554768D02*
X93416666Y-110554768D01*
X93416666Y-110554768D02*
X93511904Y-110507149D01*
X93511904Y-110507149D02*
X93559523Y-110459529D01*
%TO.C,C2*%
X122166666Y-110359580D02*
X122214285Y-110407200D01*
X122214285Y-110407200D02*
X122357142Y-110454819D01*
X122357142Y-110454819D02*
X122452380Y-110454819D01*
X122452380Y-110454819D02*
X122595237Y-110407200D01*
X122595237Y-110407200D02*
X122690475Y-110311961D01*
X122690475Y-110311961D02*
X122738094Y-110216723D01*
X122738094Y-110216723D02*
X122785713Y-110026247D01*
X122785713Y-110026247D02*
X122785713Y-109883390D01*
X122785713Y-109883390D02*
X122738094Y-109692914D01*
X122738094Y-109692914D02*
X122690475Y-109597676D01*
X122690475Y-109597676D02*
X122595237Y-109502438D01*
X122595237Y-109502438D02*
X122452380Y-109454819D01*
X122452380Y-109454819D02*
X122357142Y-109454819D01*
X122357142Y-109454819D02*
X122214285Y-109502438D01*
X122214285Y-109502438D02*
X122166666Y-109550057D01*
X121785713Y-109550057D02*
X121738094Y-109502438D01*
X121738094Y-109502438D02*
X121642856Y-109454819D01*
X121642856Y-109454819D02*
X121404761Y-109454819D01*
X121404761Y-109454819D02*
X121309523Y-109502438D01*
X121309523Y-109502438D02*
X121261904Y-109550057D01*
X121261904Y-109550057D02*
X121214285Y-109645295D01*
X121214285Y-109645295D02*
X121214285Y-109740533D01*
X121214285Y-109740533D02*
X121261904Y-109883390D01*
X121261904Y-109883390D02*
X121833332Y-110454819D01*
X121833332Y-110454819D02*
X121214285Y-110454819D01*
%TO.C,C1*%
X102416413Y-62609580D02*
X102464032Y-62657200D01*
X102464032Y-62657200D02*
X102606889Y-62704819D01*
X102606889Y-62704819D02*
X102702127Y-62704819D01*
X102702127Y-62704819D02*
X102844984Y-62657200D01*
X102844984Y-62657200D02*
X102940222Y-62561961D01*
X102940222Y-62561961D02*
X102987841Y-62466723D01*
X102987841Y-62466723D02*
X103035460Y-62276247D01*
X103035460Y-62276247D02*
X103035460Y-62133390D01*
X103035460Y-62133390D02*
X102987841Y-61942914D01*
X102987841Y-61942914D02*
X102940222Y-61847676D01*
X102940222Y-61847676D02*
X102844984Y-61752438D01*
X102844984Y-61752438D02*
X102702127Y-61704819D01*
X102702127Y-61704819D02*
X102606889Y-61704819D01*
X102606889Y-61704819D02*
X102464032Y-61752438D01*
X102464032Y-61752438D02*
X102416413Y-61800057D01*
X101464032Y-62704819D02*
X102035460Y-62704819D01*
X101749746Y-62704819D02*
X101749746Y-61704819D01*
X101749746Y-61704819D02*
X101844984Y-61847676D01*
X101844984Y-61847676D02*
X101940222Y-61942914D01*
X101940222Y-61942914D02*
X102035460Y-61990533D01*
%TO.C,U1*%
X104511904Y-100054768D02*
X104511904Y-100864291D01*
X104511904Y-100864291D02*
X104464285Y-100959529D01*
X104464285Y-100959529D02*
X104416666Y-101007149D01*
X104416666Y-101007149D02*
X104321428Y-101054768D01*
X104321428Y-101054768D02*
X104130952Y-101054768D01*
X104130952Y-101054768D02*
X104035714Y-101007149D01*
X104035714Y-101007149D02*
X103988095Y-100959529D01*
X103988095Y-100959529D02*
X103940476Y-100864291D01*
X103940476Y-100864291D02*
X103940476Y-100054768D01*
X102940476Y-101054768D02*
X103511904Y-101054768D01*
X103226190Y-101054768D02*
X103226190Y-100054768D01*
X103226190Y-100054768D02*
X103321428Y-100197625D01*
X103321428Y-100197625D02*
X103416666Y-100292863D01*
X103416666Y-100292863D02*
X103511904Y-100340482D01*
%TO.C,U4*%
X104261904Y-119554768D02*
X104261904Y-120364291D01*
X104261904Y-120364291D02*
X104214285Y-120459529D01*
X104214285Y-120459529D02*
X104166666Y-120507149D01*
X104166666Y-120507149D02*
X104071428Y-120554768D01*
X104071428Y-120554768D02*
X103880952Y-120554768D01*
X103880952Y-120554768D02*
X103785714Y-120507149D01*
X103785714Y-120507149D02*
X103738095Y-120459529D01*
X103738095Y-120459529D02*
X103690476Y-120364291D01*
X103690476Y-120364291D02*
X103690476Y-119554768D01*
X102785714Y-119888101D02*
X102785714Y-120554768D01*
X103023809Y-119507149D02*
X103261904Y-120221434D01*
X103261904Y-120221434D02*
X102642857Y-120221434D01*
D11*
%TO.C,U2*%
X77469977Y-112431229D02*
X77469977Y-115000089D01*
X76268986Y-111299911D02*
X73871222Y-111299911D01*
X73871222Y-116100013D02*
X76268986Y-116100013D01*
X72669977Y-112500089D02*
X72669977Y-115000089D01*
D12*
X77499974Y-111300089D02*
G75*
G03*
X77499974Y-111300089I-29997J0D01*
G01*
D11*
X75578105Y-113699962D02*
G75*
G03*
X75578105Y-113699962I-508001J0D01*
G01*
X76848108Y-113699962D02*
G75*
G03*
X76848108Y-113699962I-1778004J0D01*
G01*
%TO.C,U5*%
X115900000Y-113481267D02*
X115900000Y-116050127D01*
X114699009Y-112349949D02*
X112301245Y-112349949D01*
X112301245Y-117150051D02*
X114699009Y-117150051D01*
X111100000Y-113550127D02*
X111100000Y-116050127D01*
D12*
X115929997Y-112350127D02*
G75*
G03*
X115929997Y-112350127I-29997J0D01*
G01*
D11*
X114008128Y-114750000D02*
G75*
G03*
X114008128Y-114750000I-508001J0D01*
G01*
X115278131Y-114750000D02*
G75*
G03*
X115278131Y-114750000I-1778004J0D01*
G01*
%TO.C,U3*%
X96150000Y-113231267D02*
X96150000Y-115800127D01*
X94949009Y-112099949D02*
X92551245Y-112099949D01*
X92551245Y-116900051D02*
X94949009Y-116900051D01*
X91350000Y-113300127D02*
X91350000Y-115800127D01*
D12*
X96179997Y-112100127D02*
G75*
G03*
X96179997Y-112100127I-29997J0D01*
G01*
D11*
X94258128Y-114500000D02*
G75*
G03*
X94258128Y-114500000I-508001J0D01*
G01*
X95528131Y-114500000D02*
G75*
G03*
X95528131Y-114500000I-1778004J0D01*
G01*
D13*
%TO.C,C2*%
X131250000Y-116319085D02*
X131250000Y-120679085D01*
X126750000Y-120680000D02*
X131250000Y-120679085D01*
X126750000Y-116320000D02*
X131250000Y-116319085D01*
X126750000Y-116320000D02*
X126750000Y-120680000D01*
%TO.C,C1*%
X106249493Y-69255000D02*
X106249493Y-64895000D01*
X106249493Y-69255000D02*
X98750000Y-69255915D01*
X106249493Y-64895000D02*
X98750000Y-64895915D01*
X98750000Y-69255915D02*
X98750000Y-64895915D01*
D11*
%TO.C,U1*%
X106150000Y-103731267D02*
X106150000Y-106300127D01*
X104949009Y-102599949D02*
X102551245Y-102599949D01*
X102551245Y-107400051D02*
X104949009Y-107400051D01*
X101350000Y-103800127D02*
X101350000Y-106300127D01*
D12*
X106179997Y-102600127D02*
G75*
G03*
X106179997Y-102600127I-29997J0D01*
G01*
D11*
X104258128Y-105000000D02*
G75*
G03*
X104258128Y-105000000I-508001J0D01*
G01*
X105528131Y-105000000D02*
G75*
G03*
X105528131Y-105000000I-1778004J0D01*
G01*
%TO.C,U4*%
X105900000Y-123231267D02*
X105900000Y-125800127D01*
X104699009Y-122099949D02*
X102301245Y-122099949D01*
X102301245Y-126900051D02*
X104699009Y-126900051D01*
X101100000Y-123300127D02*
X101100000Y-125800127D01*
D12*
X105929997Y-122100127D02*
G75*
G03*
X105929997Y-122100127I-29997J0D01*
G01*
D11*
X104008128Y-124500000D02*
G75*
G03*
X104008128Y-124500000I-508001J0D01*
G01*
X105278131Y-124500000D02*
G75*
G03*
X105278131Y-124500000I-1778004J0D01*
G01*
%TD*%
M02*
