%TF.GenerationSoftware,KiCad,Pcbnew,7.0.5*%
%TF.CreationDate,2023-07-18T08:52:37+01:00*%
%TF.ProjectId,rbuttons,72627574-746f-46e7-932e-6b696361645f,rev?*%
%TF.SameCoordinates,Original*%
%TF.FileFunction,Profile,NP*%
%FSLAX46Y46*%
G04 Gerber Fmt 4.6, Leading zero omitted, Abs format (unit mm)*
G04 Created by KiCad (PCBNEW 7.0.5) date 2023-07-18 08:52:37*
%MOMM*%
%LPD*%
G01*
G04 APERTURE LIST*
%TA.AperFunction,Profile*%
%ADD10C,0.100000*%
%TD*%
%TA.AperFunction,Profile*%
%ADD11C,0.120000*%
%TD*%
G04 APERTURE END LIST*
D10*
X79750000Y-120250000D02*
X74500000Y-120250000D01*
X118250000Y-120250000D02*
G75*
G03*
X118250000Y-121250000I0J-500000D01*
G01*
X131250000Y-110500000D02*
X131250000Y-106750000D01*
X83000000Y-119250000D02*
X81000000Y-119250000D01*
X108540569Y-78000000D02*
G75*
G03*
X108540569Y-78000000I-790569J0D01*
G01*
X111500000Y-90000000D02*
X111500000Y-90250000D01*
X86750000Y-111500000D02*
X87208785Y-111230156D01*
X118250000Y-120250000D02*
X119250000Y-120250000D01*
X71000000Y-119750000D02*
X71000000Y-117250000D01*
X119250000Y-121250000D02*
G75*
G03*
X119250000Y-120250000I0J500000D01*
G01*
X108000000Y-79999999D02*
G75*
G03*
X108000000Y-76000001I-750000J1999999D01*
G01*
X71000000Y-107750000D02*
X69750000Y-107750000D01*
X93250000Y-119250000D02*
X96500000Y-121500000D01*
X106250000Y-80000000D02*
X108000000Y-80000000D01*
X98750254Y-70575000D02*
X98750000Y-88500000D01*
X121000000Y-104000000D02*
X128500000Y-104000000D01*
X80750000Y-108250000D02*
G75*
G03*
X80250000Y-107750000I-500000J0D01*
G01*
X79750000Y-120250000D02*
G75*
G03*
X80750000Y-119250000I0J1000000D01*
G01*
X122750000Y-111750000D02*
X122750000Y-120500000D01*
X71750000Y-107750000D02*
X71750000Y-109000000D01*
X100750000Y-130750000D02*
X99750000Y-130250000D01*
X99290569Y-105500000D02*
G75*
G03*
X99290569Y-105500000I-790569J0D01*
G01*
X80059017Y-109000000D02*
G75*
G03*
X80059017Y-109000000I-559017J0D01*
G01*
X82250000Y-116500000D02*
X86000000Y-115250000D01*
X131250000Y-106750000D02*
G75*
G03*
X128500000Y-104000000I-2750000J0D01*
G01*
X115250000Y-122750000D02*
X109000000Y-128750000D01*
X119250000Y-121250000D02*
X118250000Y-121250000D01*
X117000000Y-102000000D02*
X117000000Y-95499771D01*
X117000000Y-102000000D02*
X121000000Y-104000000D01*
X71000000Y-117250000D02*
X69250000Y-117250000D01*
X97000000Y-127000000D02*
X96500000Y-125500000D01*
X106250000Y-85250000D02*
X106250000Y-80000000D01*
X97750000Y-128250000D02*
X97000000Y-127000000D01*
X121250000Y-110250000D02*
G75*
G03*
X121250000Y-111750000I0J-750000D01*
G01*
X109500000Y-101750000D02*
X109500000Y-98500000D01*
X108000000Y-76000000D02*
X106250000Y-76000000D01*
X98750000Y-129500000D02*
X97750000Y-128250000D01*
X126750000Y-109000000D02*
X122750000Y-109000000D01*
X96500000Y-121500000D02*
X96434928Y-125000000D01*
X86000000Y-111500001D02*
X86750000Y-111500000D01*
X109500000Y-98500000D02*
X98750000Y-88500000D01*
X86961735Y-113000000D02*
G75*
G03*
X86961735Y-113000000I-696227J0D01*
G01*
X111500000Y-90250000D02*
X106250000Y-85250000D01*
X72809017Y-118250000D02*
G75*
G03*
X72809017Y-118250000I-559017J0D01*
G01*
X81000000Y-119250000D02*
X80750000Y-119250000D01*
X109000000Y-130750000D02*
X100750000Y-130750000D01*
X74500000Y-119250000D02*
G75*
G03*
X73500000Y-119250000I-500000J0D01*
G01*
X122750000Y-110250000D02*
X121250000Y-110250000D01*
X121250000Y-111750000D02*
X122750000Y-111750000D01*
X69250000Y-117250000D02*
X69250000Y-108250000D01*
X119750000Y-122750000D02*
X115250000Y-122750000D01*
X86000000Y-115250000D02*
X86000000Y-114500000D01*
X96500000Y-125500000D02*
X96434928Y-125000000D01*
X99250000Y-101750000D02*
X94750000Y-107000001D01*
X71000000Y-109000000D02*
G75*
G03*
X71750000Y-109000000I375000J0D01*
G01*
X71750000Y-107750000D02*
X80250000Y-107750000D01*
X88000000Y-117500000D02*
X93250000Y-119250000D01*
X122750000Y-120500000D02*
X119750000Y-122750000D01*
X80750000Y-116500000D02*
X82250000Y-116500000D01*
X94750000Y-107000002D02*
G75*
G03*
X87208785Y-111230156I-750000J-7499998D01*
G01*
X111500000Y-85750000D02*
X111500000Y-90000000D01*
X117000000Y-95499771D02*
X117000000Y-25750000D01*
X73500000Y-119250000D02*
X73500000Y-120250000D01*
X126750000Y-110499085D02*
X126750000Y-109000000D01*
X86000000Y-111500002D02*
G75*
G03*
X86000000Y-114499998I265500J-1499998D01*
G01*
X109500000Y-101750000D02*
X99250000Y-101750000D01*
X111500000Y-25750000D02*
X111500000Y-85750000D01*
X99207107Y-122500000D02*
G75*
G03*
X99207107Y-122500000I-707107J0D01*
G01*
X71000000Y-109000000D02*
X71000000Y-107750000D01*
X73500000Y-120250000D02*
X71750000Y-120250000D01*
X71750000Y-120250000D02*
X71000000Y-119750000D01*
X88000000Y-117500000D02*
X83000000Y-119250000D01*
X104500000Y-114500000D02*
G75*
G03*
X104500000Y-114500000I-1000000J0D01*
G01*
X99750000Y-130250000D02*
X98750000Y-129500000D01*
X106249747Y-70575000D02*
X106250000Y-76000000D01*
X80750000Y-108250000D02*
X80750000Y-116500000D01*
X69750000Y-107750000D02*
G75*
G03*
X69250000Y-108250000I0J-500000D01*
G01*
X122750000Y-109000000D02*
X122750000Y-110250000D01*
X74500000Y-120250000D02*
X74500000Y-119250000D01*
X109000000Y-128750000D02*
X109000000Y-130750000D01*
D11*
%TO.C,C3*%
X111500000Y-23250000D02*
X111500000Y-25750000D01*
X111750000Y-23250000D02*
X111500000Y-23250000D01*
X111750000Y-23250000D02*
X116750000Y-23250000D01*
X116750000Y-23250000D02*
X117000000Y-23250000D01*
X117000000Y-23250000D02*
X117000000Y-25750000D01*
%TO.C,C2*%
X131250000Y-110499085D02*
X131250000Y-120679085D01*
X126750000Y-120680000D02*
X131250000Y-120679085D01*
X126750000Y-110500000D02*
X126750000Y-120680000D01*
%TO.C,C1*%
X106250000Y-64895000D02*
X98750000Y-64895915D01*
X106249493Y-70575000D02*
X106249493Y-64895000D01*
X98750000Y-70575000D02*
X98750000Y-64895915D01*
%TD*%
M02*
