%TF.GenerationSoftware,KiCad,Pcbnew,7.0.5*%
%TF.CreationDate,2023-07-18T08:52:37+01:00*%
%TF.ProjectId,rbuttons,72627574-746f-46e7-932e-6b696361645f,rev?*%
%TF.SameCoordinates,Original*%
%TF.FileFunction,Soldermask,Bot*%
%TF.FilePolarity,Negative*%
%FSLAX46Y46*%
G04 Gerber Fmt 4.6, Leading zero omitted, Abs format (unit mm)*
G04 Created by KiCad (PCBNEW 7.0.5) date 2023-07-18 08:52:37*
%MOMM*%
%LPD*%
G01*
G04 APERTURE LIST*
%ADD10R,1.000000X0.900000*%
%ADD11R,0.250000X4.000000*%
G04 APERTURE END LIST*
D10*
%TO.C,U2*%
X77000000Y-111750000D03*
X77000000Y-115650178D03*
X73139954Y-111750000D03*
X73139954Y-115650178D03*
%TD*%
%TO.C,U5*%
X115430023Y-112800038D03*
X115430023Y-116700216D03*
X111569977Y-112800038D03*
X111569977Y-116700216D03*
%TD*%
%TO.C,U3*%
X95680023Y-112550038D03*
X95680023Y-116450216D03*
X91819977Y-112550038D03*
X91819977Y-116450216D03*
%TD*%
D11*
%TO.C,C2*%
X130750000Y-118500000D03*
X130250000Y-118500000D03*
X129750000Y-118500000D03*
X129250000Y-118500000D03*
X128750000Y-118500000D03*
X128250000Y-118500000D03*
X127750000Y-118500000D03*
X127250000Y-118500000D03*
%TD*%
%TO.C,C1*%
X105750000Y-67075000D03*
X105250000Y-67075000D03*
X104750000Y-67075000D03*
X104250000Y-67075000D03*
X103750000Y-67075000D03*
X103250000Y-67075000D03*
X102750000Y-67075000D03*
X102250000Y-67075000D03*
X101750000Y-67075000D03*
X101250000Y-67075000D03*
X100750000Y-67075000D03*
X100250000Y-67075000D03*
X99750000Y-67075000D03*
X99250000Y-67075000D03*
%TD*%
D10*
%TO.C,U1*%
X105680023Y-103050038D03*
X105680023Y-106950216D03*
X101819977Y-103050038D03*
X101819977Y-106950216D03*
%TD*%
%TO.C,U4*%
X105430023Y-122550038D03*
X105430023Y-126450216D03*
X101569977Y-122550038D03*
X101569977Y-126450216D03*
%TD*%
M02*
