%TF.GenerationSoftware,KiCad,Pcbnew,7.0.5*%
%TF.CreationDate,2023-11-24T15:22:20+00:00*%
%TF.ProjectId,VitaAnalogAdapter,56697461-416e-4616-9c6f-674164617074,rev?*%
%TF.SameCoordinates,Original*%
%TF.FileFunction,Copper,L1,Top*%
%TF.FilePolarity,Positive*%
%FSLAX46Y46*%
G04 Gerber Fmt 4.6, Leading zero omitted, Abs format (unit mm)*
G04 Created by KiCad (PCBNEW 7.0.5) date 2023-11-24 15:22:20*
%MOMM*%
%LPD*%
G01*
G04 APERTURE LIST*
%TA.AperFunction,SMDPad,CuDef*%
%ADD10R,0.299975X0.700025*%
%TD*%
%TA.AperFunction,SMDPad,CuDef*%
%ADD11R,0.299975X1.000000*%
%TD*%
%TA.AperFunction,ViaPad*%
%ADD12C,0.800000*%
%TD*%
%TA.AperFunction,Conductor*%
%ADD13C,0.250000*%
%TD*%
G04 APERTURE END LIST*
D10*
%TO.P,P1,1,1*%
%TO.N,/GND*%
X66800356Y-85124917D03*
%TO.P,P1,2,2*%
%TO.N,/X*%
X67300483Y-85124917D03*
%TO.P,P1,3,3*%
%TO.N,/Y*%
X67800356Y-85124917D03*
%TO.P,P1,4,4*%
%TO.N,/5v*%
X68300483Y-85124917D03*
%TO.P,P1,5,5*%
X68800356Y-85124917D03*
%TO.P,P1,6,6*%
X69300483Y-85124917D03*
%TO.P,P1,7,7*%
%TO.N,unconnected-(P1-Pad7)*%
X69800356Y-85124917D03*
%TO.P,P1,8,8*%
%TO.N,unconnected-(P1-Pad8)*%
X70300483Y-85124917D03*
%TO.P,P1,9,9*%
%TO.N,unconnected-(P1-Pad9)*%
X70800356Y-85124917D03*
%TO.P,P1,10,10*%
%TO.N,unconnected-(P1-Pad10)*%
X71299975Y-85124917D03*
D11*
%TO.P,P1,11,11*%
%TO.N,unconnected-(P1-Pad11)*%
X66000000Y-87625044D03*
%TO.P,P1,12,12*%
%TO.N,unconnected-(P1-Pad12)*%
X72099822Y-87625044D03*
%TD*%
D10*
%TO.P,P2,1,1*%
%TO.N,/GND*%
X71299466Y-93750127D03*
%TO.P,P2,2,2*%
%TO.N,unconnected-(P2-Pad2)*%
X70799339Y-93750127D03*
%TO.P,P2,3,3*%
%TO.N,/5v*%
X70299466Y-93750127D03*
%TO.P,P2,4,4*%
%TO.N,/Y*%
X69799339Y-93750127D03*
%TO.P,P2,5,5*%
%TO.N,/X*%
X69299466Y-93750127D03*
%TO.P,P2,6,6*%
%TO.N,unconnected-(P2-Pad6)*%
X68799339Y-93750127D03*
%TO.P,P2,7,7*%
%TO.N,unconnected-(P2-Pad7)*%
X68299466Y-93750127D03*
%TO.P,P2,8,8*%
%TO.N,unconnected-(P2-Pad8)*%
X67799339Y-93750127D03*
%TO.P,P2,9,9*%
%TO.N,unconnected-(P2-Pad9)*%
X67299466Y-93750127D03*
%TO.P,P2,10,10*%
%TO.N,unconnected-(P2-Pad10)*%
X66799847Y-93750127D03*
D11*
%TO.P,P2,11,11*%
%TO.N,unconnected-(P2-Pad11)*%
X72099822Y-91250000D03*
%TO.P,P2,12,12*%
%TO.N,unconnected-(P2-Pad12)*%
X66000000Y-91250000D03*
%TD*%
D12*
%TO.N,/GND*%
X71250000Y-89500000D03*
X68000000Y-89500000D03*
%TD*%
D13*
%TO.N,/X*%
X69299466Y-89049466D02*
X69299466Y-93750127D01*
X67300483Y-87050483D02*
X69299466Y-89049466D01*
X67300483Y-85124917D02*
X67300483Y-87050483D01*
%TO.N,/Y*%
X67800356Y-86686752D02*
X67800356Y-85124917D01*
X69799339Y-88685735D02*
X67800356Y-86686752D01*
X69799339Y-93750127D02*
X69799339Y-88685735D01*
%TO.N,/5v*%
X70299466Y-88549466D02*
X70299466Y-93750127D01*
X68300483Y-86550483D02*
X70299466Y-88549466D01*
X68300483Y-85124917D02*
X68300483Y-86550483D01*
%TO.N,/GND*%
X66800356Y-88300356D02*
X66800356Y-85124917D01*
X68000000Y-89500000D02*
X66800356Y-88300356D01*
X71299466Y-89549466D02*
X71250000Y-89500000D01*
X71299466Y-93750127D02*
X71299466Y-89549466D01*
%TD*%
M02*
