M48
; DRILL file {KiCad 7.0.5} date Wed Jun 28 16:16:17 2023
; FORMAT={-:-/ absolute / inch / decimal}
; #@! TF.CreationDate,2023-06-28T16:16:17+01:00
; #@! TF.GenerationSoftware,Kicad,Pcbnew,7.0.5
; #@! TF.FileFunction,Plated,1,2,PTH
FMAT,2
INCH
; #@! TA.AperFunction,Plated,PTH,ViaDrill
T1C0.0157
%
G90
G05
T1
X3.061Y-4.6654
X3.3563Y-4.3602
X3.3661Y-4.9606
X3.5925Y-4.9705
X3.5925Y-5.0295
X3.6024Y-5.0886
X3.7303Y-5.561
X3.7697Y-5.5315
X3.8287Y-5.5068
X3.8681Y-5.4921
X3.9173Y-5.4724
X3.9567Y-5.4528
X4.1634Y-5.5709
X4.1985Y-5.5383
X4.2323Y-5.5098
X4.2717Y-5.4813
X4.3012Y-5.4331
X4.3701Y-5.5413
X6.4911Y-3.9715
X6.5207Y-4.001
X6.5502Y-4.0404
X6.5699Y-4.0797
X6.5797Y-4.1191
X6.5994Y-4.1585
X7.0719Y-4.3258
X7.2293Y-4.188
X7.3474Y-4.1289
X7.4656Y-4.7293
X7.5148Y-5.4577
X7.564Y-3.9321
X7.751Y-4.5719
T0
M30
