%TF.GenerationSoftware,KiCad,Pcbnew,7.0.5*%
%TF.CreationDate,2023-06-28T16:16:01+01:00*%
%TF.ProjectId,buttonsSuper,62757474-6f6e-4735-9375-7065722e6b69,rev?*%
%TF.SameCoordinates,Original*%
%TF.FileFunction,Legend,Bot*%
%TF.FilePolarity,Positive*%
%FSLAX46Y46*%
G04 Gerber Fmt 4.6, Leading zero omitted, Abs format (unit mm)*
G04 Created by KiCad (PCBNEW 7.0.5) date 2023-06-28 16:16:01*
%MOMM*%
%LPD*%
G01*
G04 APERTURE LIST*
%ADD10C,0.150000*%
%ADD11C,0.059995*%
%ADD12C,0.254001*%
G04 APERTURE END LIST*
D10*
%TO.C,U2*%
X185129730Y-141543118D02*
X185939253Y-141543118D01*
X185939253Y-141543118D02*
X186034491Y-141590737D01*
X186034491Y-141590737D02*
X186082111Y-141638356D01*
X186082111Y-141638356D02*
X186129730Y-141733594D01*
X186129730Y-141733594D02*
X186129730Y-141924070D01*
X186129730Y-141924070D02*
X186082111Y-142019308D01*
X186082111Y-142019308D02*
X186034491Y-142066927D01*
X186034491Y-142066927D02*
X185939253Y-142114546D01*
X185939253Y-142114546D02*
X185129730Y-142114546D01*
X185224968Y-142543118D02*
X185177349Y-142590737D01*
X185177349Y-142590737D02*
X185129730Y-142685975D01*
X185129730Y-142685975D02*
X185129730Y-142924070D01*
X185129730Y-142924070D02*
X185177349Y-143019308D01*
X185177349Y-143019308D02*
X185224968Y-143066927D01*
X185224968Y-143066927D02*
X185320206Y-143114546D01*
X185320206Y-143114546D02*
X185415444Y-143114546D01*
X185415444Y-143114546D02*
X185558301Y-143066927D01*
X185558301Y-143066927D02*
X186129730Y-142495499D01*
X186129730Y-142495499D02*
X186129730Y-143114546D01*
%TO.C,U3*%
X185929768Y-122863095D02*
X186739291Y-122863095D01*
X186739291Y-122863095D02*
X186834529Y-122910714D01*
X186834529Y-122910714D02*
X186882149Y-122958333D01*
X186882149Y-122958333D02*
X186929768Y-123053571D01*
X186929768Y-123053571D02*
X186929768Y-123244047D01*
X186929768Y-123244047D02*
X186882149Y-123339285D01*
X186882149Y-123339285D02*
X186834529Y-123386904D01*
X186834529Y-123386904D02*
X186739291Y-123434523D01*
X186739291Y-123434523D02*
X185929768Y-123434523D01*
X185929768Y-123815476D02*
X185929768Y-124434523D01*
X185929768Y-124434523D02*
X186310720Y-124101190D01*
X186310720Y-124101190D02*
X186310720Y-124244047D01*
X186310720Y-124244047D02*
X186358339Y-124339285D01*
X186358339Y-124339285D02*
X186405958Y-124386904D01*
X186405958Y-124386904D02*
X186501196Y-124434523D01*
X186501196Y-124434523D02*
X186739291Y-124434523D01*
X186739291Y-124434523D02*
X186834529Y-124386904D01*
X186834529Y-124386904D02*
X186882149Y-124339285D01*
X186882149Y-124339285D02*
X186929768Y-124244047D01*
X186929768Y-124244047D02*
X186929768Y-123958333D01*
X186929768Y-123958333D02*
X186882149Y-123863095D01*
X186882149Y-123863095D02*
X186834529Y-123815476D01*
%TO.C,U4*%
X195929768Y-113113095D02*
X196739291Y-113113095D01*
X196739291Y-113113095D02*
X196834529Y-113160714D01*
X196834529Y-113160714D02*
X196882149Y-113208333D01*
X196882149Y-113208333D02*
X196929768Y-113303571D01*
X196929768Y-113303571D02*
X196929768Y-113494047D01*
X196929768Y-113494047D02*
X196882149Y-113589285D01*
X196882149Y-113589285D02*
X196834529Y-113636904D01*
X196834529Y-113636904D02*
X196739291Y-113684523D01*
X196739291Y-113684523D02*
X195929768Y-113684523D01*
X196263101Y-114589285D02*
X196929768Y-114589285D01*
X195882149Y-114351190D02*
X196596434Y-114113095D01*
X196596434Y-114113095D02*
X196596434Y-114732142D01*
%TO.C,U1*%
X176429768Y-112863095D02*
X177239291Y-112863095D01*
X177239291Y-112863095D02*
X177334529Y-112910714D01*
X177334529Y-112910714D02*
X177382149Y-112958333D01*
X177382149Y-112958333D02*
X177429768Y-113053571D01*
X177429768Y-113053571D02*
X177429768Y-113244047D01*
X177429768Y-113244047D02*
X177382149Y-113339285D01*
X177382149Y-113339285D02*
X177334529Y-113386904D01*
X177334529Y-113386904D02*
X177239291Y-113434523D01*
X177239291Y-113434523D02*
X176429768Y-113434523D01*
X177429768Y-114434523D02*
X177429768Y-113863095D01*
X177429768Y-114148809D02*
X176429768Y-114148809D01*
X176429768Y-114148809D02*
X176572625Y-114053571D01*
X176572625Y-114053571D02*
X176667863Y-113958333D01*
X176667863Y-113958333D02*
X176715482Y-113863095D01*
%TO.C,U5*%
X186179768Y-103113095D02*
X186989291Y-103113095D01*
X186989291Y-103113095D02*
X187084529Y-103160714D01*
X187084529Y-103160714D02*
X187132149Y-103208333D01*
X187132149Y-103208333D02*
X187179768Y-103303571D01*
X187179768Y-103303571D02*
X187179768Y-103494047D01*
X187179768Y-103494047D02*
X187132149Y-103589285D01*
X187132149Y-103589285D02*
X187084529Y-103636904D01*
X187084529Y-103636904D02*
X186989291Y-103684523D01*
X186989291Y-103684523D02*
X186179768Y-103684523D01*
X186179768Y-104636904D02*
X186179768Y-104160714D01*
X186179768Y-104160714D02*
X186655958Y-104113095D01*
X186655958Y-104113095D02*
X186608339Y-104160714D01*
X186608339Y-104160714D02*
X186560720Y-104255952D01*
X186560720Y-104255952D02*
X186560720Y-104494047D01*
X186560720Y-104494047D02*
X186608339Y-104589285D01*
X186608339Y-104589285D02*
X186655958Y-104636904D01*
X186655958Y-104636904D02*
X186751196Y-104684523D01*
X186751196Y-104684523D02*
X186989291Y-104684523D01*
X186989291Y-104684523D02*
X187084529Y-104636904D01*
X187084529Y-104636904D02*
X187132149Y-104589285D01*
X187132149Y-104589285D02*
X187179768Y-104494047D01*
X187179768Y-104494047D02*
X187179768Y-104255952D01*
X187179768Y-104255952D02*
X187132149Y-104160714D01*
X187132149Y-104160714D02*
X187084529Y-104113095D01*
D11*
%TO.C,U2*%
X187705086Y-139905023D02*
G75*
G03*
X187705086Y-139905023I-29997J0D01*
G01*
D12*
X191852966Y-142304896D02*
G75*
G03*
X191852966Y-142304896I-1778004J0D01*
G01*
X190582963Y-142304896D02*
G75*
G03*
X190582963Y-142304896I-508001J0D01*
G01*
X188875089Y-144705023D02*
X191375089Y-144705023D01*
X188806229Y-139905023D02*
X191375089Y-139905023D01*
X187674911Y-141106014D02*
X187674911Y-143503778D01*
X192475013Y-143503778D02*
X192475013Y-141106014D01*
D11*
%TO.C,U3*%
X188505124Y-121225000D02*
G75*
G03*
X188505124Y-121225000I-29997J0D01*
G01*
D12*
X192653004Y-123624873D02*
G75*
G03*
X192653004Y-123624873I-1778004J0D01*
G01*
X191383001Y-123624873D02*
G75*
G03*
X191383001Y-123624873I-508001J0D01*
G01*
X189675127Y-126025000D02*
X192175127Y-126025000D01*
X189606267Y-121225000D02*
X192175127Y-121225000D01*
X188474949Y-122425991D02*
X188474949Y-124823755D01*
X193275051Y-124823755D02*
X193275051Y-122425991D01*
D11*
%TO.C,U4*%
X198505124Y-111475000D02*
G75*
G03*
X198505124Y-111475000I-29997J0D01*
G01*
D12*
X202653004Y-113874873D02*
G75*
G03*
X202653004Y-113874873I-1778004J0D01*
G01*
X201383001Y-113874873D02*
G75*
G03*
X201383001Y-113874873I-508001J0D01*
G01*
X199675127Y-116275000D02*
X202175127Y-116275000D01*
X199606267Y-111475000D02*
X202175127Y-111475000D01*
X198474949Y-112675991D02*
X198474949Y-115073755D01*
X203275051Y-115073755D02*
X203275051Y-112675991D01*
D11*
%TO.C,U1*%
X179005124Y-111225000D02*
G75*
G03*
X179005124Y-111225000I-29997J0D01*
G01*
D12*
X183153004Y-113624873D02*
G75*
G03*
X183153004Y-113624873I-1778004J0D01*
G01*
X181883001Y-113624873D02*
G75*
G03*
X181883001Y-113624873I-508001J0D01*
G01*
X180175127Y-116025000D02*
X182675127Y-116025000D01*
X180106267Y-111225000D02*
X182675127Y-111225000D01*
X178974949Y-112425991D02*
X178974949Y-114823755D01*
X183775051Y-114823755D02*
X183775051Y-112425991D01*
D11*
%TO.C,U5*%
X188755124Y-101475000D02*
G75*
G03*
X188755124Y-101475000I-29997J0D01*
G01*
D12*
X192903004Y-103874873D02*
G75*
G03*
X192903004Y-103874873I-1778004J0D01*
G01*
X191633001Y-103874873D02*
G75*
G03*
X191633001Y-103874873I-508001J0D01*
G01*
X189925127Y-106275000D02*
X192425127Y-106275000D01*
X189856267Y-101475000D02*
X192425127Y-101475000D01*
X188724949Y-102675991D02*
X188724949Y-105073755D01*
X193525051Y-105073755D02*
X193525051Y-102675991D01*
%TD*%
M02*
