%TF.GenerationSoftware,KiCad,Pcbnew,7.0.5*%
%TF.CreationDate,2023-09-23T20:40:57+01:00*%
%TF.ProjectId,buttonsSuper,62757474-6f6e-4735-9375-7065722e6b69,rev?*%
%TF.SameCoordinates,Original*%
%TF.FileFunction,Other,Comment*%
%FSLAX46Y46*%
G04 Gerber Fmt 4.6, Leading zero omitted, Abs format (unit mm)*
G04 Created by KiCad (PCBNEW 7.0.5) date 2023-09-23 20:40:57*
%MOMM*%
%LPD*%
G01*
G04 APERTURE LIST*
%ADD10C,0.150000*%
G04 APERTURE END LIST*
D10*
X74289160Y-70632200D02*
X74432017Y-70679819D01*
X74432017Y-70679819D02*
X74670112Y-70679819D01*
X74670112Y-70679819D02*
X74765350Y-70632200D01*
X74765350Y-70632200D02*
X74812969Y-70584580D01*
X74812969Y-70584580D02*
X74860588Y-70489342D01*
X74860588Y-70489342D02*
X74860588Y-70394104D01*
X74860588Y-70394104D02*
X74812969Y-70298866D01*
X74812969Y-70298866D02*
X74765350Y-70251247D01*
X74765350Y-70251247D02*
X74670112Y-70203628D01*
X74670112Y-70203628D02*
X74479636Y-70156009D01*
X74479636Y-70156009D02*
X74384398Y-70108390D01*
X74384398Y-70108390D02*
X74336779Y-70060771D01*
X74336779Y-70060771D02*
X74289160Y-69965533D01*
X74289160Y-69965533D02*
X74289160Y-69870295D01*
X74289160Y-69870295D02*
X74336779Y-69775057D01*
X74336779Y-69775057D02*
X74384398Y-69727438D01*
X74384398Y-69727438D02*
X74479636Y-69679819D01*
X74479636Y-69679819D02*
X74717731Y-69679819D01*
X74717731Y-69679819D02*
X74860588Y-69727438D01*
X75146303Y-70013152D02*
X75527255Y-70013152D01*
X75289160Y-69679819D02*
X75289160Y-70536961D01*
X75289160Y-70536961D02*
X75336779Y-70632200D01*
X75336779Y-70632200D02*
X75432017Y-70679819D01*
X75432017Y-70679819D02*
X75527255Y-70679819D01*
X75860589Y-70679819D02*
X75860589Y-70013152D01*
X75860589Y-69679819D02*
X75812970Y-69727438D01*
X75812970Y-69727438D02*
X75860589Y-69775057D01*
X75860589Y-69775057D02*
X75908208Y-69727438D01*
X75908208Y-69727438D02*
X75860589Y-69679819D01*
X75860589Y-69679819D02*
X75860589Y-69775057D01*
X76193922Y-70013152D02*
X76574874Y-70013152D01*
X76336779Y-70679819D02*
X76336779Y-69822676D01*
X76336779Y-69822676D02*
X76384398Y-69727438D01*
X76384398Y-69727438D02*
X76479636Y-69679819D01*
X76479636Y-69679819D02*
X76574874Y-69679819D01*
X76765351Y-70013152D02*
X77146303Y-70013152D01*
X76908208Y-70679819D02*
X76908208Y-69822676D01*
X76908208Y-69822676D02*
X76955827Y-69727438D01*
X76955827Y-69727438D02*
X77051065Y-69679819D01*
X77051065Y-69679819D02*
X77146303Y-69679819D01*
X77860589Y-70632200D02*
X77765351Y-70679819D01*
X77765351Y-70679819D02*
X77574875Y-70679819D01*
X77574875Y-70679819D02*
X77479637Y-70632200D01*
X77479637Y-70632200D02*
X77432018Y-70536961D01*
X77432018Y-70536961D02*
X77432018Y-70156009D01*
X77432018Y-70156009D02*
X77479637Y-70060771D01*
X77479637Y-70060771D02*
X77574875Y-70013152D01*
X77574875Y-70013152D02*
X77765351Y-70013152D01*
X77765351Y-70013152D02*
X77860589Y-70060771D01*
X77860589Y-70060771D02*
X77908208Y-70156009D01*
X77908208Y-70156009D02*
X77908208Y-70251247D01*
X77908208Y-70251247D02*
X77432018Y-70346485D01*
X78336780Y-70013152D02*
X78336780Y-70679819D01*
X78336780Y-70108390D02*
X78384399Y-70060771D01*
X78384399Y-70060771D02*
X78479637Y-70013152D01*
X78479637Y-70013152D02*
X78622494Y-70013152D01*
X78622494Y-70013152D02*
X78717732Y-70060771D01*
X78717732Y-70060771D02*
X78765351Y-70156009D01*
X78765351Y-70156009D02*
X78765351Y-70679819D01*
X79622494Y-70632200D02*
X79527256Y-70679819D01*
X79527256Y-70679819D02*
X79336780Y-70679819D01*
X79336780Y-70679819D02*
X79241542Y-70632200D01*
X79241542Y-70632200D02*
X79193923Y-70536961D01*
X79193923Y-70536961D02*
X79193923Y-70156009D01*
X79193923Y-70156009D02*
X79241542Y-70060771D01*
X79241542Y-70060771D02*
X79336780Y-70013152D01*
X79336780Y-70013152D02*
X79527256Y-70013152D01*
X79527256Y-70013152D02*
X79622494Y-70060771D01*
X79622494Y-70060771D02*
X79670113Y-70156009D01*
X79670113Y-70156009D02*
X79670113Y-70251247D01*
X79670113Y-70251247D02*
X79193923Y-70346485D01*
X80098685Y-70679819D02*
X80098685Y-70013152D01*
X80098685Y-70203628D02*
X80146304Y-70108390D01*
X80146304Y-70108390D02*
X80193923Y-70060771D01*
X80193923Y-70060771D02*
X80289161Y-70013152D01*
X80289161Y-70013152D02*
X80384399Y-70013152D01*
X80717733Y-70584580D02*
X80765352Y-70632200D01*
X80765352Y-70632200D02*
X80717733Y-70679819D01*
X80717733Y-70679819D02*
X80670114Y-70632200D01*
X80670114Y-70632200D02*
X80717733Y-70584580D01*
X80717733Y-70584580D02*
X80717733Y-70679819D01*
X80717733Y-70060771D02*
X80765352Y-70108390D01*
X80765352Y-70108390D02*
X80717733Y-70156009D01*
X80717733Y-70156009D02*
X80670114Y-70108390D01*
X80670114Y-70108390D02*
X80717733Y-70060771D01*
X80717733Y-70060771D02*
X80717733Y-70156009D01*
X81955828Y-70679819D02*
X81955828Y-69679819D01*
X81955828Y-69679819D02*
X82336780Y-69679819D01*
X82336780Y-69679819D02*
X82432018Y-69727438D01*
X82432018Y-69727438D02*
X82479637Y-69775057D01*
X82479637Y-69775057D02*
X82527256Y-69870295D01*
X82527256Y-69870295D02*
X82527256Y-70013152D01*
X82527256Y-70013152D02*
X82479637Y-70108390D01*
X82479637Y-70108390D02*
X82432018Y-70156009D01*
X82432018Y-70156009D02*
X82336780Y-70203628D01*
X82336780Y-70203628D02*
X81955828Y-70203628D01*
X83098685Y-70679819D02*
X83003447Y-70632200D01*
X83003447Y-70632200D02*
X82955828Y-70584580D01*
X82955828Y-70584580D02*
X82908209Y-70489342D01*
X82908209Y-70489342D02*
X82908209Y-70203628D01*
X82908209Y-70203628D02*
X82955828Y-70108390D01*
X82955828Y-70108390D02*
X83003447Y-70060771D01*
X83003447Y-70060771D02*
X83098685Y-70013152D01*
X83098685Y-70013152D02*
X83241542Y-70013152D01*
X83241542Y-70013152D02*
X83336780Y-70060771D01*
X83336780Y-70060771D02*
X83384399Y-70108390D01*
X83384399Y-70108390D02*
X83432018Y-70203628D01*
X83432018Y-70203628D02*
X83432018Y-70489342D01*
X83432018Y-70489342D02*
X83384399Y-70584580D01*
X83384399Y-70584580D02*
X83336780Y-70632200D01*
X83336780Y-70632200D02*
X83241542Y-70679819D01*
X83241542Y-70679819D02*
X83098685Y-70679819D01*
X84003447Y-70679819D02*
X83908209Y-70632200D01*
X83908209Y-70632200D02*
X83860590Y-70536961D01*
X83860590Y-70536961D02*
X83860590Y-69679819D01*
X84289162Y-70013152D02*
X84527257Y-70679819D01*
X84765352Y-70013152D02*
X84527257Y-70679819D01*
X84527257Y-70679819D02*
X84432019Y-70917914D01*
X84432019Y-70917914D02*
X84384400Y-70965533D01*
X84384400Y-70965533D02*
X84289162Y-71013152D01*
X85146305Y-70679819D02*
X85146305Y-70013152D01*
X85146305Y-69679819D02*
X85098686Y-69727438D01*
X85098686Y-69727438D02*
X85146305Y-69775057D01*
X85146305Y-69775057D02*
X85193924Y-69727438D01*
X85193924Y-69727438D02*
X85146305Y-69679819D01*
X85146305Y-69679819D02*
X85146305Y-69775057D01*
X85622495Y-70679819D02*
X85622495Y-70013152D01*
X85622495Y-70108390D02*
X85670114Y-70060771D01*
X85670114Y-70060771D02*
X85765352Y-70013152D01*
X85765352Y-70013152D02*
X85908209Y-70013152D01*
X85908209Y-70013152D02*
X86003447Y-70060771D01*
X86003447Y-70060771D02*
X86051066Y-70156009D01*
X86051066Y-70156009D02*
X86051066Y-70679819D01*
X86051066Y-70156009D02*
X86098685Y-70060771D01*
X86098685Y-70060771D02*
X86193923Y-70013152D01*
X86193923Y-70013152D02*
X86336780Y-70013152D01*
X86336780Y-70013152D02*
X86432019Y-70060771D01*
X86432019Y-70060771D02*
X86479638Y-70156009D01*
X86479638Y-70156009D02*
X86479638Y-70679819D01*
X86955828Y-70679819D02*
X86955828Y-70013152D01*
X86955828Y-69679819D02*
X86908209Y-69727438D01*
X86908209Y-69727438D02*
X86955828Y-69775057D01*
X86955828Y-69775057D02*
X87003447Y-69727438D01*
X87003447Y-69727438D02*
X86955828Y-69679819D01*
X86955828Y-69679819D02*
X86955828Y-69775057D01*
X87860589Y-70679819D02*
X87860589Y-69679819D01*
X87860589Y-70632200D02*
X87765351Y-70679819D01*
X87765351Y-70679819D02*
X87574875Y-70679819D01*
X87574875Y-70679819D02*
X87479637Y-70632200D01*
X87479637Y-70632200D02*
X87432018Y-70584580D01*
X87432018Y-70584580D02*
X87384399Y-70489342D01*
X87384399Y-70489342D02*
X87384399Y-70203628D01*
X87384399Y-70203628D02*
X87432018Y-70108390D01*
X87432018Y-70108390D02*
X87479637Y-70060771D01*
X87479637Y-70060771D02*
X87574875Y-70013152D01*
X87574875Y-70013152D02*
X87765351Y-70013152D01*
X87765351Y-70013152D02*
X87860589Y-70060771D01*
X88717732Y-70632200D02*
X88622494Y-70679819D01*
X88622494Y-70679819D02*
X88432018Y-70679819D01*
X88432018Y-70679819D02*
X88336780Y-70632200D01*
X88336780Y-70632200D02*
X88289161Y-70536961D01*
X88289161Y-70536961D02*
X88289161Y-70156009D01*
X88289161Y-70156009D02*
X88336780Y-70060771D01*
X88336780Y-70060771D02*
X88432018Y-70013152D01*
X88432018Y-70013152D02*
X88622494Y-70013152D01*
X88622494Y-70013152D02*
X88717732Y-70060771D01*
X88717732Y-70060771D02*
X88765351Y-70156009D01*
X88765351Y-70156009D02*
X88765351Y-70251247D01*
X88765351Y-70251247D02*
X88289161Y-70346485D01*
X74289160Y-72242200D02*
X74432017Y-72289819D01*
X74432017Y-72289819D02*
X74670112Y-72289819D01*
X74670112Y-72289819D02*
X74765350Y-72242200D01*
X74765350Y-72242200D02*
X74812969Y-72194580D01*
X74812969Y-72194580D02*
X74860588Y-72099342D01*
X74860588Y-72099342D02*
X74860588Y-72004104D01*
X74860588Y-72004104D02*
X74812969Y-71908866D01*
X74812969Y-71908866D02*
X74765350Y-71861247D01*
X74765350Y-71861247D02*
X74670112Y-71813628D01*
X74670112Y-71813628D02*
X74479636Y-71766009D01*
X74479636Y-71766009D02*
X74384398Y-71718390D01*
X74384398Y-71718390D02*
X74336779Y-71670771D01*
X74336779Y-71670771D02*
X74289160Y-71575533D01*
X74289160Y-71575533D02*
X74289160Y-71480295D01*
X74289160Y-71480295D02*
X74336779Y-71385057D01*
X74336779Y-71385057D02*
X74384398Y-71337438D01*
X74384398Y-71337438D02*
X74479636Y-71289819D01*
X74479636Y-71289819D02*
X74717731Y-71289819D01*
X74717731Y-71289819D02*
X74860588Y-71337438D01*
X75146303Y-71623152D02*
X75527255Y-71623152D01*
X75289160Y-71289819D02*
X75289160Y-72146961D01*
X75289160Y-72146961D02*
X75336779Y-72242200D01*
X75336779Y-72242200D02*
X75432017Y-72289819D01*
X75432017Y-72289819D02*
X75527255Y-72289819D01*
X75860589Y-72289819D02*
X75860589Y-71623152D01*
X75860589Y-71289819D02*
X75812970Y-71337438D01*
X75812970Y-71337438D02*
X75860589Y-71385057D01*
X75860589Y-71385057D02*
X75908208Y-71337438D01*
X75908208Y-71337438D02*
X75860589Y-71289819D01*
X75860589Y-71289819D02*
X75860589Y-71385057D01*
X76193922Y-71623152D02*
X76574874Y-71623152D01*
X76336779Y-72289819D02*
X76336779Y-71432676D01*
X76336779Y-71432676D02*
X76384398Y-71337438D01*
X76384398Y-71337438D02*
X76479636Y-71289819D01*
X76479636Y-71289819D02*
X76574874Y-71289819D01*
X76765351Y-71623152D02*
X77146303Y-71623152D01*
X76908208Y-72289819D02*
X76908208Y-71432676D01*
X76908208Y-71432676D02*
X76955827Y-71337438D01*
X76955827Y-71337438D02*
X77051065Y-71289819D01*
X77051065Y-71289819D02*
X77146303Y-71289819D01*
X77860589Y-72242200D02*
X77765351Y-72289819D01*
X77765351Y-72289819D02*
X77574875Y-72289819D01*
X77574875Y-72289819D02*
X77479637Y-72242200D01*
X77479637Y-72242200D02*
X77432018Y-72146961D01*
X77432018Y-72146961D02*
X77432018Y-71766009D01*
X77432018Y-71766009D02*
X77479637Y-71670771D01*
X77479637Y-71670771D02*
X77574875Y-71623152D01*
X77574875Y-71623152D02*
X77765351Y-71623152D01*
X77765351Y-71623152D02*
X77860589Y-71670771D01*
X77860589Y-71670771D02*
X77908208Y-71766009D01*
X77908208Y-71766009D02*
X77908208Y-71861247D01*
X77908208Y-71861247D02*
X77432018Y-71956485D01*
X78336780Y-71623152D02*
X78336780Y-72289819D01*
X78336780Y-71718390D02*
X78384399Y-71670771D01*
X78384399Y-71670771D02*
X78479637Y-71623152D01*
X78479637Y-71623152D02*
X78622494Y-71623152D01*
X78622494Y-71623152D02*
X78717732Y-71670771D01*
X78717732Y-71670771D02*
X78765351Y-71766009D01*
X78765351Y-71766009D02*
X78765351Y-72289819D01*
X79622494Y-72242200D02*
X79527256Y-72289819D01*
X79527256Y-72289819D02*
X79336780Y-72289819D01*
X79336780Y-72289819D02*
X79241542Y-72242200D01*
X79241542Y-72242200D02*
X79193923Y-72146961D01*
X79193923Y-72146961D02*
X79193923Y-71766009D01*
X79193923Y-71766009D02*
X79241542Y-71670771D01*
X79241542Y-71670771D02*
X79336780Y-71623152D01*
X79336780Y-71623152D02*
X79527256Y-71623152D01*
X79527256Y-71623152D02*
X79622494Y-71670771D01*
X79622494Y-71670771D02*
X79670113Y-71766009D01*
X79670113Y-71766009D02*
X79670113Y-71861247D01*
X79670113Y-71861247D02*
X79193923Y-71956485D01*
X80098685Y-72289819D02*
X80098685Y-71623152D01*
X80098685Y-71813628D02*
X80146304Y-71718390D01*
X80146304Y-71718390D02*
X80193923Y-71670771D01*
X80193923Y-71670771D02*
X80289161Y-71623152D01*
X80289161Y-71623152D02*
X80384399Y-71623152D01*
X81336781Y-71623152D02*
X81717733Y-71623152D01*
X81479638Y-71289819D02*
X81479638Y-72146961D01*
X81479638Y-72146961D02*
X81527257Y-72242200D01*
X81527257Y-72242200D02*
X81622495Y-72289819D01*
X81622495Y-72289819D02*
X81717733Y-72289819D01*
X82051067Y-72289819D02*
X82051067Y-71289819D01*
X82479638Y-72289819D02*
X82479638Y-71766009D01*
X82479638Y-71766009D02*
X82432019Y-71670771D01*
X82432019Y-71670771D02*
X82336781Y-71623152D01*
X82336781Y-71623152D02*
X82193924Y-71623152D01*
X82193924Y-71623152D02*
X82098686Y-71670771D01*
X82098686Y-71670771D02*
X82051067Y-71718390D01*
X82955829Y-72289819D02*
X82955829Y-71623152D01*
X82955829Y-71289819D02*
X82908210Y-71337438D01*
X82908210Y-71337438D02*
X82955829Y-71385057D01*
X82955829Y-71385057D02*
X83003448Y-71337438D01*
X83003448Y-71337438D02*
X82955829Y-71289819D01*
X82955829Y-71289819D02*
X82955829Y-71385057D01*
X83860590Y-72242200D02*
X83765352Y-72289819D01*
X83765352Y-72289819D02*
X83574876Y-72289819D01*
X83574876Y-72289819D02*
X83479638Y-72242200D01*
X83479638Y-72242200D02*
X83432019Y-72194580D01*
X83432019Y-72194580D02*
X83384400Y-72099342D01*
X83384400Y-72099342D02*
X83384400Y-71813628D01*
X83384400Y-71813628D02*
X83432019Y-71718390D01*
X83432019Y-71718390D02*
X83479638Y-71670771D01*
X83479638Y-71670771D02*
X83574876Y-71623152D01*
X83574876Y-71623152D02*
X83765352Y-71623152D01*
X83765352Y-71623152D02*
X83860590Y-71670771D01*
X84289162Y-72289819D02*
X84289162Y-71289819D01*
X84384400Y-71908866D02*
X84670114Y-72289819D01*
X84670114Y-71623152D02*
X84289162Y-72004104D01*
X85098686Y-71623152D02*
X85098686Y-72289819D01*
X85098686Y-71718390D02*
X85146305Y-71670771D01*
X85146305Y-71670771D02*
X85241543Y-71623152D01*
X85241543Y-71623152D02*
X85384400Y-71623152D01*
X85384400Y-71623152D02*
X85479638Y-71670771D01*
X85479638Y-71670771D02*
X85527257Y-71766009D01*
X85527257Y-71766009D02*
X85527257Y-72289819D01*
X86384400Y-72242200D02*
X86289162Y-72289819D01*
X86289162Y-72289819D02*
X86098686Y-72289819D01*
X86098686Y-72289819D02*
X86003448Y-72242200D01*
X86003448Y-72242200D02*
X85955829Y-72146961D01*
X85955829Y-72146961D02*
X85955829Y-71766009D01*
X85955829Y-71766009D02*
X86003448Y-71670771D01*
X86003448Y-71670771D02*
X86098686Y-71623152D01*
X86098686Y-71623152D02*
X86289162Y-71623152D01*
X86289162Y-71623152D02*
X86384400Y-71670771D01*
X86384400Y-71670771D02*
X86432019Y-71766009D01*
X86432019Y-71766009D02*
X86432019Y-71861247D01*
X86432019Y-71861247D02*
X85955829Y-71956485D01*
X86812972Y-72242200D02*
X86908210Y-72289819D01*
X86908210Y-72289819D02*
X87098686Y-72289819D01*
X87098686Y-72289819D02*
X87193924Y-72242200D01*
X87193924Y-72242200D02*
X87241543Y-72146961D01*
X87241543Y-72146961D02*
X87241543Y-72099342D01*
X87241543Y-72099342D02*
X87193924Y-72004104D01*
X87193924Y-72004104D02*
X87098686Y-71956485D01*
X87098686Y-71956485D02*
X86955829Y-71956485D01*
X86955829Y-71956485D02*
X86860591Y-71908866D01*
X86860591Y-71908866D02*
X86812972Y-71813628D01*
X86812972Y-71813628D02*
X86812972Y-71766009D01*
X86812972Y-71766009D02*
X86860591Y-71670771D01*
X86860591Y-71670771D02*
X86955829Y-71623152D01*
X86955829Y-71623152D02*
X87098686Y-71623152D01*
X87098686Y-71623152D02*
X87193924Y-71670771D01*
X87622496Y-72242200D02*
X87717734Y-72289819D01*
X87717734Y-72289819D02*
X87908210Y-72289819D01*
X87908210Y-72289819D02*
X88003448Y-72242200D01*
X88003448Y-72242200D02*
X88051067Y-72146961D01*
X88051067Y-72146961D02*
X88051067Y-72099342D01*
X88051067Y-72099342D02*
X88003448Y-72004104D01*
X88003448Y-72004104D02*
X87908210Y-71956485D01*
X87908210Y-71956485D02*
X87765353Y-71956485D01*
X87765353Y-71956485D02*
X87670115Y-71908866D01*
X87670115Y-71908866D02*
X87622496Y-71813628D01*
X87622496Y-71813628D02*
X87622496Y-71766009D01*
X87622496Y-71766009D02*
X87670115Y-71670771D01*
X87670115Y-71670771D02*
X87765353Y-71623152D01*
X87765353Y-71623152D02*
X87908210Y-71623152D01*
X87908210Y-71623152D02*
X88003448Y-71670771D01*
X88479639Y-72194580D02*
X88527258Y-72242200D01*
X88527258Y-72242200D02*
X88479639Y-72289819D01*
X88479639Y-72289819D02*
X88432020Y-72242200D01*
X88432020Y-72242200D02*
X88479639Y-72194580D01*
X88479639Y-72194580D02*
X88479639Y-72289819D01*
X88479639Y-71670771D02*
X88527258Y-71718390D01*
X88527258Y-71718390D02*
X88479639Y-71766009D01*
X88479639Y-71766009D02*
X88432020Y-71718390D01*
X88432020Y-71718390D02*
X88479639Y-71670771D01*
X88479639Y-71670771D02*
X88479639Y-71766009D01*
X89908210Y-71289819D02*
X90003448Y-71289819D01*
X90003448Y-71289819D02*
X90098686Y-71337438D01*
X90098686Y-71337438D02*
X90146305Y-71385057D01*
X90146305Y-71385057D02*
X90193924Y-71480295D01*
X90193924Y-71480295D02*
X90241543Y-71670771D01*
X90241543Y-71670771D02*
X90241543Y-71908866D01*
X90241543Y-71908866D02*
X90193924Y-72099342D01*
X90193924Y-72099342D02*
X90146305Y-72194580D01*
X90146305Y-72194580D02*
X90098686Y-72242200D01*
X90098686Y-72242200D02*
X90003448Y-72289819D01*
X90003448Y-72289819D02*
X89908210Y-72289819D01*
X89908210Y-72289819D02*
X89812972Y-72242200D01*
X89812972Y-72242200D02*
X89765353Y-72194580D01*
X89765353Y-72194580D02*
X89717734Y-72099342D01*
X89717734Y-72099342D02*
X89670115Y-71908866D01*
X89670115Y-71908866D02*
X89670115Y-71670771D01*
X89670115Y-71670771D02*
X89717734Y-71480295D01*
X89717734Y-71480295D02*
X89765353Y-71385057D01*
X89765353Y-71385057D02*
X89812972Y-71337438D01*
X89812972Y-71337438D02*
X89908210Y-71289819D01*
X90670115Y-72194580D02*
X90717734Y-72242200D01*
X90717734Y-72242200D02*
X90670115Y-72289819D01*
X90670115Y-72289819D02*
X90622496Y-72242200D01*
X90622496Y-72242200D02*
X90670115Y-72194580D01*
X90670115Y-72194580D02*
X90670115Y-72289819D01*
X91098686Y-71385057D02*
X91146305Y-71337438D01*
X91146305Y-71337438D02*
X91241543Y-71289819D01*
X91241543Y-71289819D02*
X91479638Y-71289819D01*
X91479638Y-71289819D02*
X91574876Y-71337438D01*
X91574876Y-71337438D02*
X91622495Y-71385057D01*
X91622495Y-71385057D02*
X91670114Y-71480295D01*
X91670114Y-71480295D02*
X91670114Y-71575533D01*
X91670114Y-71575533D02*
X91622495Y-71718390D01*
X91622495Y-71718390D02*
X91051067Y-72289819D01*
X91051067Y-72289819D02*
X91670114Y-72289819D01*
X92098686Y-72289819D02*
X92098686Y-71623152D01*
X92098686Y-71718390D02*
X92146305Y-71670771D01*
X92146305Y-71670771D02*
X92241543Y-71623152D01*
X92241543Y-71623152D02*
X92384400Y-71623152D01*
X92384400Y-71623152D02*
X92479638Y-71670771D01*
X92479638Y-71670771D02*
X92527257Y-71766009D01*
X92527257Y-71766009D02*
X92527257Y-72289819D01*
X92527257Y-71766009D02*
X92574876Y-71670771D01*
X92574876Y-71670771D02*
X92670114Y-71623152D01*
X92670114Y-71623152D02*
X92812971Y-71623152D01*
X92812971Y-71623152D02*
X92908210Y-71670771D01*
X92908210Y-71670771D02*
X92955829Y-71766009D01*
X92955829Y-71766009D02*
X92955829Y-72289819D01*
X93432019Y-72289819D02*
X93432019Y-71623152D01*
X93432019Y-71718390D02*
X93479638Y-71670771D01*
X93479638Y-71670771D02*
X93574876Y-71623152D01*
X93574876Y-71623152D02*
X93717733Y-71623152D01*
X93717733Y-71623152D02*
X93812971Y-71670771D01*
X93812971Y-71670771D02*
X93860590Y-71766009D01*
X93860590Y-71766009D02*
X93860590Y-72289819D01*
X93860590Y-71766009D02*
X93908209Y-71670771D01*
X93908209Y-71670771D02*
X94003447Y-71623152D01*
X94003447Y-71623152D02*
X94146304Y-71623152D01*
X94146304Y-71623152D02*
X94241543Y-71670771D01*
X94241543Y-71670771D02*
X94289162Y-71766009D01*
X94289162Y-71766009D02*
X94289162Y-72289819D01*
X74289160Y-73852200D02*
X74432017Y-73899819D01*
X74432017Y-73899819D02*
X74670112Y-73899819D01*
X74670112Y-73899819D02*
X74765350Y-73852200D01*
X74765350Y-73852200D02*
X74812969Y-73804580D01*
X74812969Y-73804580D02*
X74860588Y-73709342D01*
X74860588Y-73709342D02*
X74860588Y-73614104D01*
X74860588Y-73614104D02*
X74812969Y-73518866D01*
X74812969Y-73518866D02*
X74765350Y-73471247D01*
X74765350Y-73471247D02*
X74670112Y-73423628D01*
X74670112Y-73423628D02*
X74479636Y-73376009D01*
X74479636Y-73376009D02*
X74384398Y-73328390D01*
X74384398Y-73328390D02*
X74336779Y-73280771D01*
X74336779Y-73280771D02*
X74289160Y-73185533D01*
X74289160Y-73185533D02*
X74289160Y-73090295D01*
X74289160Y-73090295D02*
X74336779Y-72995057D01*
X74336779Y-72995057D02*
X74384398Y-72947438D01*
X74384398Y-72947438D02*
X74479636Y-72899819D01*
X74479636Y-72899819D02*
X74717731Y-72899819D01*
X74717731Y-72899819D02*
X74860588Y-72947438D01*
X75146303Y-73233152D02*
X75527255Y-73233152D01*
X75289160Y-72899819D02*
X75289160Y-73756961D01*
X75289160Y-73756961D02*
X75336779Y-73852200D01*
X75336779Y-73852200D02*
X75432017Y-73899819D01*
X75432017Y-73899819D02*
X75527255Y-73899819D01*
X75860589Y-73899819D02*
X75860589Y-73233152D01*
X75860589Y-72899819D02*
X75812970Y-72947438D01*
X75812970Y-72947438D02*
X75860589Y-72995057D01*
X75860589Y-72995057D02*
X75908208Y-72947438D01*
X75908208Y-72947438D02*
X75860589Y-72899819D01*
X75860589Y-72899819D02*
X75860589Y-72995057D01*
X76193922Y-73233152D02*
X76574874Y-73233152D01*
X76336779Y-73899819D02*
X76336779Y-73042676D01*
X76336779Y-73042676D02*
X76384398Y-72947438D01*
X76384398Y-72947438D02*
X76479636Y-72899819D01*
X76479636Y-72899819D02*
X76574874Y-72899819D01*
X76765351Y-73233152D02*
X77146303Y-73233152D01*
X76908208Y-73899819D02*
X76908208Y-73042676D01*
X76908208Y-73042676D02*
X76955827Y-72947438D01*
X76955827Y-72947438D02*
X77051065Y-72899819D01*
X77051065Y-72899819D02*
X77146303Y-72899819D01*
X77860589Y-73852200D02*
X77765351Y-73899819D01*
X77765351Y-73899819D02*
X77574875Y-73899819D01*
X77574875Y-73899819D02*
X77479637Y-73852200D01*
X77479637Y-73852200D02*
X77432018Y-73756961D01*
X77432018Y-73756961D02*
X77432018Y-73376009D01*
X77432018Y-73376009D02*
X77479637Y-73280771D01*
X77479637Y-73280771D02*
X77574875Y-73233152D01*
X77574875Y-73233152D02*
X77765351Y-73233152D01*
X77765351Y-73233152D02*
X77860589Y-73280771D01*
X77860589Y-73280771D02*
X77908208Y-73376009D01*
X77908208Y-73376009D02*
X77908208Y-73471247D01*
X77908208Y-73471247D02*
X77432018Y-73566485D01*
X78336780Y-73233152D02*
X78336780Y-73899819D01*
X78336780Y-73328390D02*
X78384399Y-73280771D01*
X78384399Y-73280771D02*
X78479637Y-73233152D01*
X78479637Y-73233152D02*
X78622494Y-73233152D01*
X78622494Y-73233152D02*
X78717732Y-73280771D01*
X78717732Y-73280771D02*
X78765351Y-73376009D01*
X78765351Y-73376009D02*
X78765351Y-73899819D01*
X79622494Y-73852200D02*
X79527256Y-73899819D01*
X79527256Y-73899819D02*
X79336780Y-73899819D01*
X79336780Y-73899819D02*
X79241542Y-73852200D01*
X79241542Y-73852200D02*
X79193923Y-73756961D01*
X79193923Y-73756961D02*
X79193923Y-73376009D01*
X79193923Y-73376009D02*
X79241542Y-73280771D01*
X79241542Y-73280771D02*
X79336780Y-73233152D01*
X79336780Y-73233152D02*
X79527256Y-73233152D01*
X79527256Y-73233152D02*
X79622494Y-73280771D01*
X79622494Y-73280771D02*
X79670113Y-73376009D01*
X79670113Y-73376009D02*
X79670113Y-73471247D01*
X79670113Y-73471247D02*
X79193923Y-73566485D01*
X80098685Y-73899819D02*
X80098685Y-73233152D01*
X80098685Y-73423628D02*
X80146304Y-73328390D01*
X80146304Y-73328390D02*
X80193923Y-73280771D01*
X80193923Y-73280771D02*
X80289161Y-73233152D01*
X80289161Y-73233152D02*
X80384399Y-73233152D01*
X81955828Y-73899819D02*
X81479638Y-73899819D01*
X81479638Y-73899819D02*
X81479638Y-72899819D01*
X82432019Y-73899819D02*
X82336781Y-73852200D01*
X82336781Y-73852200D02*
X82289162Y-73804580D01*
X82289162Y-73804580D02*
X82241543Y-73709342D01*
X82241543Y-73709342D02*
X82241543Y-73423628D01*
X82241543Y-73423628D02*
X82289162Y-73328390D01*
X82289162Y-73328390D02*
X82336781Y-73280771D01*
X82336781Y-73280771D02*
X82432019Y-73233152D01*
X82432019Y-73233152D02*
X82574876Y-73233152D01*
X82574876Y-73233152D02*
X82670114Y-73280771D01*
X82670114Y-73280771D02*
X82717733Y-73328390D01*
X82717733Y-73328390D02*
X82765352Y-73423628D01*
X82765352Y-73423628D02*
X82765352Y-73709342D01*
X82765352Y-73709342D02*
X82717733Y-73804580D01*
X82717733Y-73804580D02*
X82670114Y-73852200D01*
X82670114Y-73852200D02*
X82574876Y-73899819D01*
X82574876Y-73899819D02*
X82432019Y-73899819D01*
X83622495Y-73852200D02*
X83527257Y-73899819D01*
X83527257Y-73899819D02*
X83336781Y-73899819D01*
X83336781Y-73899819D02*
X83241543Y-73852200D01*
X83241543Y-73852200D02*
X83193924Y-73804580D01*
X83193924Y-73804580D02*
X83146305Y-73709342D01*
X83146305Y-73709342D02*
X83146305Y-73423628D01*
X83146305Y-73423628D02*
X83193924Y-73328390D01*
X83193924Y-73328390D02*
X83241543Y-73280771D01*
X83241543Y-73280771D02*
X83336781Y-73233152D01*
X83336781Y-73233152D02*
X83527257Y-73233152D01*
X83527257Y-73233152D02*
X83622495Y-73280771D01*
X84479638Y-73899819D02*
X84479638Y-73376009D01*
X84479638Y-73376009D02*
X84432019Y-73280771D01*
X84432019Y-73280771D02*
X84336781Y-73233152D01*
X84336781Y-73233152D02*
X84146305Y-73233152D01*
X84146305Y-73233152D02*
X84051067Y-73280771D01*
X84479638Y-73852200D02*
X84384400Y-73899819D01*
X84384400Y-73899819D02*
X84146305Y-73899819D01*
X84146305Y-73899819D02*
X84051067Y-73852200D01*
X84051067Y-73852200D02*
X84003448Y-73756961D01*
X84003448Y-73756961D02*
X84003448Y-73661723D01*
X84003448Y-73661723D02*
X84051067Y-73566485D01*
X84051067Y-73566485D02*
X84146305Y-73518866D01*
X84146305Y-73518866D02*
X84384400Y-73518866D01*
X84384400Y-73518866D02*
X84479638Y-73471247D01*
X84812972Y-73233152D02*
X85193924Y-73233152D01*
X84955829Y-72899819D02*
X84955829Y-73756961D01*
X84955829Y-73756961D02*
X85003448Y-73852200D01*
X85003448Y-73852200D02*
X85098686Y-73899819D01*
X85098686Y-73899819D02*
X85193924Y-73899819D01*
X85527258Y-73899819D02*
X85527258Y-73233152D01*
X85527258Y-72899819D02*
X85479639Y-72947438D01*
X85479639Y-72947438D02*
X85527258Y-72995057D01*
X85527258Y-72995057D02*
X85574877Y-72947438D01*
X85574877Y-72947438D02*
X85527258Y-72899819D01*
X85527258Y-72899819D02*
X85527258Y-72995057D01*
X86146305Y-73899819D02*
X86051067Y-73852200D01*
X86051067Y-73852200D02*
X86003448Y-73804580D01*
X86003448Y-73804580D02*
X85955829Y-73709342D01*
X85955829Y-73709342D02*
X85955829Y-73423628D01*
X85955829Y-73423628D02*
X86003448Y-73328390D01*
X86003448Y-73328390D02*
X86051067Y-73280771D01*
X86051067Y-73280771D02*
X86146305Y-73233152D01*
X86146305Y-73233152D02*
X86289162Y-73233152D01*
X86289162Y-73233152D02*
X86384400Y-73280771D01*
X86384400Y-73280771D02*
X86432019Y-73328390D01*
X86432019Y-73328390D02*
X86479638Y-73423628D01*
X86479638Y-73423628D02*
X86479638Y-73709342D01*
X86479638Y-73709342D02*
X86432019Y-73804580D01*
X86432019Y-73804580D02*
X86384400Y-73852200D01*
X86384400Y-73852200D02*
X86289162Y-73899819D01*
X86289162Y-73899819D02*
X86146305Y-73899819D01*
X86908210Y-73233152D02*
X86908210Y-73899819D01*
X86908210Y-73328390D02*
X86955829Y-73280771D01*
X86955829Y-73280771D02*
X87051067Y-73233152D01*
X87051067Y-73233152D02*
X87193924Y-73233152D01*
X87193924Y-73233152D02*
X87289162Y-73280771D01*
X87289162Y-73280771D02*
X87336781Y-73376009D01*
X87336781Y-73376009D02*
X87336781Y-73899819D01*
X87812972Y-73804580D02*
X87860591Y-73852200D01*
X87860591Y-73852200D02*
X87812972Y-73899819D01*
X87812972Y-73899819D02*
X87765353Y-73852200D01*
X87765353Y-73852200D02*
X87812972Y-73804580D01*
X87812972Y-73804580D02*
X87812972Y-73899819D01*
X87812972Y-73280771D02*
X87860591Y-73328390D01*
X87860591Y-73328390D02*
X87812972Y-73376009D01*
X87812972Y-73376009D02*
X87765353Y-73328390D01*
X87765353Y-73328390D02*
X87812972Y-73280771D01*
X87812972Y-73280771D02*
X87812972Y-73376009D01*
X89622495Y-73899819D02*
X89289162Y-73423628D01*
X89051067Y-73899819D02*
X89051067Y-72899819D01*
X89051067Y-72899819D02*
X89432019Y-72899819D01*
X89432019Y-72899819D02*
X89527257Y-72947438D01*
X89527257Y-72947438D02*
X89574876Y-72995057D01*
X89574876Y-72995057D02*
X89622495Y-73090295D01*
X89622495Y-73090295D02*
X89622495Y-73233152D01*
X89622495Y-73233152D02*
X89574876Y-73328390D01*
X89574876Y-73328390D02*
X89527257Y-73376009D01*
X89527257Y-73376009D02*
X89432019Y-73423628D01*
X89432019Y-73423628D02*
X89051067Y-73423628D01*
X90432019Y-73852200D02*
X90336781Y-73899819D01*
X90336781Y-73899819D02*
X90146305Y-73899819D01*
X90146305Y-73899819D02*
X90051067Y-73852200D01*
X90051067Y-73852200D02*
X90003448Y-73756961D01*
X90003448Y-73756961D02*
X90003448Y-73376009D01*
X90003448Y-73376009D02*
X90051067Y-73280771D01*
X90051067Y-73280771D02*
X90146305Y-73233152D01*
X90146305Y-73233152D02*
X90336781Y-73233152D01*
X90336781Y-73233152D02*
X90432019Y-73280771D01*
X90432019Y-73280771D02*
X90479638Y-73376009D01*
X90479638Y-73376009D02*
X90479638Y-73471247D01*
X90479638Y-73471247D02*
X90003448Y-73566485D01*
X90765353Y-73233152D02*
X91146305Y-73233152D01*
X90908210Y-73899819D02*
X90908210Y-73042676D01*
X90908210Y-73042676D02*
X90955829Y-72947438D01*
X90955829Y-72947438D02*
X91051067Y-72899819D01*
X91051067Y-72899819D02*
X91146305Y-72899819D01*
X91860591Y-73852200D02*
X91765353Y-73899819D01*
X91765353Y-73899819D02*
X91574877Y-73899819D01*
X91574877Y-73899819D02*
X91479639Y-73852200D01*
X91479639Y-73852200D02*
X91432020Y-73756961D01*
X91432020Y-73756961D02*
X91432020Y-73376009D01*
X91432020Y-73376009D02*
X91479639Y-73280771D01*
X91479639Y-73280771D02*
X91574877Y-73233152D01*
X91574877Y-73233152D02*
X91765353Y-73233152D01*
X91765353Y-73233152D02*
X91860591Y-73280771D01*
X91860591Y-73280771D02*
X91908210Y-73376009D01*
X91908210Y-73376009D02*
X91908210Y-73471247D01*
X91908210Y-73471247D02*
X91432020Y-73566485D01*
X92336782Y-73899819D02*
X92336782Y-73233152D01*
X92336782Y-73423628D02*
X92384401Y-73328390D01*
X92384401Y-73328390D02*
X92432020Y-73280771D01*
X92432020Y-73280771D02*
X92527258Y-73233152D01*
X92527258Y-73233152D02*
X92622496Y-73233152D01*
X93574878Y-73233152D02*
X93955830Y-73233152D01*
X93717735Y-72899819D02*
X93717735Y-73756961D01*
X93717735Y-73756961D02*
X93765354Y-73852200D01*
X93765354Y-73852200D02*
X93860592Y-73899819D01*
X93860592Y-73899819D02*
X93955830Y-73899819D01*
X94432021Y-73899819D02*
X94336783Y-73852200D01*
X94336783Y-73852200D02*
X94289164Y-73804580D01*
X94289164Y-73804580D02*
X94241545Y-73709342D01*
X94241545Y-73709342D02*
X94241545Y-73423628D01*
X94241545Y-73423628D02*
X94289164Y-73328390D01*
X94289164Y-73328390D02*
X94336783Y-73280771D01*
X94336783Y-73280771D02*
X94432021Y-73233152D01*
X94432021Y-73233152D02*
X94574878Y-73233152D01*
X94574878Y-73233152D02*
X94670116Y-73280771D01*
X94670116Y-73280771D02*
X94717735Y-73328390D01*
X94717735Y-73328390D02*
X94765354Y-73423628D01*
X94765354Y-73423628D02*
X94765354Y-73709342D01*
X94765354Y-73709342D02*
X94717735Y-73804580D01*
X94717735Y-73804580D02*
X94670116Y-73852200D01*
X94670116Y-73852200D02*
X94574878Y-73899819D01*
X94574878Y-73899819D02*
X94432021Y-73899819D01*
X95955831Y-72899819D02*
X95955831Y-73709342D01*
X95955831Y-73709342D02*
X96003450Y-73804580D01*
X96003450Y-73804580D02*
X96051069Y-73852200D01*
X96051069Y-73852200D02*
X96146307Y-73899819D01*
X96146307Y-73899819D02*
X96336783Y-73899819D01*
X96336783Y-73899819D02*
X96432021Y-73852200D01*
X96432021Y-73852200D02*
X96479640Y-73804580D01*
X96479640Y-73804580D02*
X96527259Y-73709342D01*
X96527259Y-73709342D02*
X96527259Y-72899819D01*
X96955831Y-73852200D02*
X97051069Y-73899819D01*
X97051069Y-73899819D02*
X97241545Y-73899819D01*
X97241545Y-73899819D02*
X97336783Y-73852200D01*
X97336783Y-73852200D02*
X97384402Y-73756961D01*
X97384402Y-73756961D02*
X97384402Y-73709342D01*
X97384402Y-73709342D02*
X97336783Y-73614104D01*
X97336783Y-73614104D02*
X97241545Y-73566485D01*
X97241545Y-73566485D02*
X97098688Y-73566485D01*
X97098688Y-73566485D02*
X97003450Y-73518866D01*
X97003450Y-73518866D02*
X96955831Y-73423628D01*
X96955831Y-73423628D02*
X96955831Y-73376009D01*
X96955831Y-73376009D02*
X97003450Y-73280771D01*
X97003450Y-73280771D02*
X97098688Y-73233152D01*
X97098688Y-73233152D02*
X97241545Y-73233152D01*
X97241545Y-73233152D02*
X97336783Y-73280771D01*
X98193926Y-73852200D02*
X98098688Y-73899819D01*
X98098688Y-73899819D02*
X97908212Y-73899819D01*
X97908212Y-73899819D02*
X97812974Y-73852200D01*
X97812974Y-73852200D02*
X97765355Y-73756961D01*
X97765355Y-73756961D02*
X97765355Y-73376009D01*
X97765355Y-73376009D02*
X97812974Y-73280771D01*
X97812974Y-73280771D02*
X97908212Y-73233152D01*
X97908212Y-73233152D02*
X98098688Y-73233152D01*
X98098688Y-73233152D02*
X98193926Y-73280771D01*
X98193926Y-73280771D02*
X98241545Y-73376009D01*
X98241545Y-73376009D02*
X98241545Y-73471247D01*
X98241545Y-73471247D02*
X97765355Y-73566485D01*
X98670117Y-73899819D02*
X98670117Y-73233152D01*
X98670117Y-73423628D02*
X98717736Y-73328390D01*
X98717736Y-73328390D02*
X98765355Y-73280771D01*
X98765355Y-73280771D02*
X98860593Y-73233152D01*
X98860593Y-73233152D02*
X98955831Y-73233152D01*
X99289165Y-73804580D02*
X99336784Y-73852200D01*
X99336784Y-73852200D02*
X99289165Y-73899819D01*
X99289165Y-73899819D02*
X99241546Y-73852200D01*
X99241546Y-73852200D02*
X99289165Y-73804580D01*
X99289165Y-73804580D02*
X99289165Y-73899819D01*
X99765355Y-73899819D02*
X99765355Y-72899819D01*
X99765355Y-72899819D02*
X100003450Y-72899819D01*
X100003450Y-72899819D02*
X100146307Y-72947438D01*
X100146307Y-72947438D02*
X100241545Y-73042676D01*
X100241545Y-73042676D02*
X100289164Y-73137914D01*
X100289164Y-73137914D02*
X100336783Y-73328390D01*
X100336783Y-73328390D02*
X100336783Y-73471247D01*
X100336783Y-73471247D02*
X100289164Y-73661723D01*
X100289164Y-73661723D02*
X100241545Y-73756961D01*
X100241545Y-73756961D02*
X100146307Y-73852200D01*
X100146307Y-73852200D02*
X100003450Y-73899819D01*
X100003450Y-73899819D02*
X99765355Y-73899819D01*
X100765355Y-73899819D02*
X100765355Y-73233152D01*
X100765355Y-73423628D02*
X100812974Y-73328390D01*
X100812974Y-73328390D02*
X100860593Y-73280771D01*
X100860593Y-73280771D02*
X100955831Y-73233152D01*
X100955831Y-73233152D02*
X101051069Y-73233152D01*
X101812974Y-73899819D02*
X101812974Y-73376009D01*
X101812974Y-73376009D02*
X101765355Y-73280771D01*
X101765355Y-73280771D02*
X101670117Y-73233152D01*
X101670117Y-73233152D02*
X101479641Y-73233152D01*
X101479641Y-73233152D02*
X101384403Y-73280771D01*
X101812974Y-73852200D02*
X101717736Y-73899819D01*
X101717736Y-73899819D02*
X101479641Y-73899819D01*
X101479641Y-73899819D02*
X101384403Y-73852200D01*
X101384403Y-73852200D02*
X101336784Y-73756961D01*
X101336784Y-73756961D02*
X101336784Y-73661723D01*
X101336784Y-73661723D02*
X101384403Y-73566485D01*
X101384403Y-73566485D02*
X101479641Y-73518866D01*
X101479641Y-73518866D02*
X101717736Y-73518866D01*
X101717736Y-73518866D02*
X101812974Y-73471247D01*
X102193927Y-73233152D02*
X102384403Y-73899819D01*
X102384403Y-73899819D02*
X102574879Y-73423628D01*
X102574879Y-73423628D02*
X102765355Y-73899819D01*
X102765355Y-73899819D02*
X102955831Y-73233152D01*
X103336784Y-73899819D02*
X103336784Y-73233152D01*
X103336784Y-72899819D02*
X103289165Y-72947438D01*
X103289165Y-72947438D02*
X103336784Y-72995057D01*
X103336784Y-72995057D02*
X103384403Y-72947438D01*
X103384403Y-72947438D02*
X103336784Y-72899819D01*
X103336784Y-72899819D02*
X103336784Y-72995057D01*
X103812974Y-73233152D02*
X103812974Y-73899819D01*
X103812974Y-73328390D02*
X103860593Y-73280771D01*
X103860593Y-73280771D02*
X103955831Y-73233152D01*
X103955831Y-73233152D02*
X104098688Y-73233152D01*
X104098688Y-73233152D02*
X104193926Y-73280771D01*
X104193926Y-73280771D02*
X104241545Y-73376009D01*
X104241545Y-73376009D02*
X104241545Y-73899819D01*
X105146307Y-73233152D02*
X105146307Y-74042676D01*
X105146307Y-74042676D02*
X105098688Y-74137914D01*
X105098688Y-74137914D02*
X105051069Y-74185533D01*
X105051069Y-74185533D02*
X104955831Y-74233152D01*
X104955831Y-74233152D02*
X104812974Y-74233152D01*
X104812974Y-74233152D02*
X104717736Y-74185533D01*
X105146307Y-73852200D02*
X105051069Y-73899819D01*
X105051069Y-73899819D02*
X104860593Y-73899819D01*
X104860593Y-73899819D02*
X104765355Y-73852200D01*
X104765355Y-73852200D02*
X104717736Y-73804580D01*
X104717736Y-73804580D02*
X104670117Y-73709342D01*
X104670117Y-73709342D02*
X104670117Y-73423628D01*
X104670117Y-73423628D02*
X104717736Y-73328390D01*
X104717736Y-73328390D02*
X104765355Y-73280771D01*
X104765355Y-73280771D02*
X104860593Y-73233152D01*
X104860593Y-73233152D02*
X105051069Y-73233152D01*
X105051069Y-73233152D02*
X105146307Y-73280771D01*
X105574879Y-73852200D02*
X105670117Y-73899819D01*
X105670117Y-73899819D02*
X105860593Y-73899819D01*
X105860593Y-73899819D02*
X105955831Y-73852200D01*
X105955831Y-73852200D02*
X106003450Y-73756961D01*
X106003450Y-73756961D02*
X106003450Y-73709342D01*
X106003450Y-73709342D02*
X105955831Y-73614104D01*
X105955831Y-73614104D02*
X105860593Y-73566485D01*
X105860593Y-73566485D02*
X105717736Y-73566485D01*
X105717736Y-73566485D02*
X105622498Y-73518866D01*
X105622498Y-73518866D02*
X105574879Y-73423628D01*
X105574879Y-73423628D02*
X105574879Y-73376009D01*
X105574879Y-73376009D02*
X105622498Y-73280771D01*
X105622498Y-73280771D02*
X105717736Y-73233152D01*
X105717736Y-73233152D02*
X105860593Y-73233152D01*
X105860593Y-73233152D02*
X105955831Y-73280771D01*
X107336784Y-73899819D02*
X107241546Y-73852200D01*
X107241546Y-73852200D02*
X107193927Y-73756961D01*
X107193927Y-73756961D02*
X107193927Y-72899819D01*
X108146308Y-73899819D02*
X108146308Y-73376009D01*
X108146308Y-73376009D02*
X108098689Y-73280771D01*
X108098689Y-73280771D02*
X108003451Y-73233152D01*
X108003451Y-73233152D02*
X107812975Y-73233152D01*
X107812975Y-73233152D02*
X107717737Y-73280771D01*
X108146308Y-73852200D02*
X108051070Y-73899819D01*
X108051070Y-73899819D02*
X107812975Y-73899819D01*
X107812975Y-73899819D02*
X107717737Y-73852200D01*
X107717737Y-73852200D02*
X107670118Y-73756961D01*
X107670118Y-73756961D02*
X107670118Y-73661723D01*
X107670118Y-73661723D02*
X107717737Y-73566485D01*
X107717737Y-73566485D02*
X107812975Y-73518866D01*
X107812975Y-73518866D02*
X108051070Y-73518866D01*
X108051070Y-73518866D02*
X108146308Y-73471247D01*
X108527261Y-73233152D02*
X108765356Y-73899819D01*
X109003451Y-73233152D02*
X108765356Y-73899819D01*
X108765356Y-73899819D02*
X108670118Y-74137914D01*
X108670118Y-74137914D02*
X108622499Y-74185533D01*
X108622499Y-74185533D02*
X108527261Y-74233152D01*
X109765356Y-73852200D02*
X109670118Y-73899819D01*
X109670118Y-73899819D02*
X109479642Y-73899819D01*
X109479642Y-73899819D02*
X109384404Y-73852200D01*
X109384404Y-73852200D02*
X109336785Y-73756961D01*
X109336785Y-73756961D02*
X109336785Y-73376009D01*
X109336785Y-73376009D02*
X109384404Y-73280771D01*
X109384404Y-73280771D02*
X109479642Y-73233152D01*
X109479642Y-73233152D02*
X109670118Y-73233152D01*
X109670118Y-73233152D02*
X109765356Y-73280771D01*
X109765356Y-73280771D02*
X109812975Y-73376009D01*
X109812975Y-73376009D02*
X109812975Y-73471247D01*
X109812975Y-73471247D02*
X109336785Y-73566485D01*
X110241547Y-73899819D02*
X110241547Y-73233152D01*
X110241547Y-73423628D02*
X110289166Y-73328390D01*
X110289166Y-73328390D02*
X110336785Y-73280771D01*
X110336785Y-73280771D02*
X110432023Y-73233152D01*
X110432023Y-73233152D02*
X110527261Y-73233152D01*
X74193922Y-76119819D02*
X74765350Y-76119819D01*
X74479636Y-77119819D02*
X74479636Y-76119819D01*
X75098684Y-77119819D02*
X75098684Y-76119819D01*
X75527255Y-77119819D02*
X75527255Y-76596009D01*
X75527255Y-76596009D02*
X75479636Y-76500771D01*
X75479636Y-76500771D02*
X75384398Y-76453152D01*
X75384398Y-76453152D02*
X75241541Y-76453152D01*
X75241541Y-76453152D02*
X75146303Y-76500771D01*
X75146303Y-76500771D02*
X75098684Y-76548390D01*
X76432017Y-77119819D02*
X76432017Y-76596009D01*
X76432017Y-76596009D02*
X76384398Y-76500771D01*
X76384398Y-76500771D02*
X76289160Y-76453152D01*
X76289160Y-76453152D02*
X76098684Y-76453152D01*
X76098684Y-76453152D02*
X76003446Y-76500771D01*
X76432017Y-77072200D02*
X76336779Y-77119819D01*
X76336779Y-77119819D02*
X76098684Y-77119819D01*
X76098684Y-77119819D02*
X76003446Y-77072200D01*
X76003446Y-77072200D02*
X75955827Y-76976961D01*
X75955827Y-76976961D02*
X75955827Y-76881723D01*
X75955827Y-76881723D02*
X76003446Y-76786485D01*
X76003446Y-76786485D02*
X76098684Y-76738866D01*
X76098684Y-76738866D02*
X76336779Y-76738866D01*
X76336779Y-76738866D02*
X76432017Y-76691247D01*
X76908208Y-76453152D02*
X76908208Y-77119819D01*
X76908208Y-76548390D02*
X76955827Y-76500771D01*
X76955827Y-76500771D02*
X77051065Y-76453152D01*
X77051065Y-76453152D02*
X77193922Y-76453152D01*
X77193922Y-76453152D02*
X77289160Y-76500771D01*
X77289160Y-76500771D02*
X77336779Y-76596009D01*
X77336779Y-76596009D02*
X77336779Y-77119819D01*
X77812970Y-77119819D02*
X77812970Y-76119819D01*
X77908208Y-76738866D02*
X78193922Y-77119819D01*
X78193922Y-76453152D02*
X77812970Y-76834104D01*
X78574875Y-77072200D02*
X78670113Y-77119819D01*
X78670113Y-77119819D02*
X78860589Y-77119819D01*
X78860589Y-77119819D02*
X78955827Y-77072200D01*
X78955827Y-77072200D02*
X79003446Y-76976961D01*
X79003446Y-76976961D02*
X79003446Y-76929342D01*
X79003446Y-76929342D02*
X78955827Y-76834104D01*
X78955827Y-76834104D02*
X78860589Y-76786485D01*
X78860589Y-76786485D02*
X78717732Y-76786485D01*
X78717732Y-76786485D02*
X78622494Y-76738866D01*
X78622494Y-76738866D02*
X78574875Y-76643628D01*
X78574875Y-76643628D02*
X78574875Y-76596009D01*
X78574875Y-76596009D02*
X78622494Y-76500771D01*
X78622494Y-76500771D02*
X78717732Y-76453152D01*
X78717732Y-76453152D02*
X78860589Y-76453152D01*
X78860589Y-76453152D02*
X78955827Y-76500771D01*
X80193923Y-77024580D02*
X80241542Y-77072200D01*
X80241542Y-77072200D02*
X80193923Y-77119819D01*
X80193923Y-77119819D02*
X80146304Y-77072200D01*
X80146304Y-77072200D02*
X80193923Y-77024580D01*
X80193923Y-77024580D02*
X80193923Y-77119819D01*
X80193923Y-76500771D02*
X80241542Y-76548390D01*
X80241542Y-76548390D02*
X80193923Y-76596009D01*
X80193923Y-76596009D02*
X80146304Y-76548390D01*
X80146304Y-76548390D02*
X80193923Y-76500771D01*
X80193923Y-76500771D02*
X80193923Y-76596009D01*
X80574875Y-77500771D02*
X80622494Y-77453152D01*
X80622494Y-77453152D02*
X80717732Y-77310295D01*
X80717732Y-77310295D02*
X80765351Y-77215057D01*
X80765351Y-77215057D02*
X80812970Y-77072200D01*
X80812970Y-77072200D02*
X80860589Y-76834104D01*
X80860589Y-76834104D02*
X80860589Y-76643628D01*
X80860589Y-76643628D02*
X80812970Y-76405533D01*
X80812970Y-76405533D02*
X80765351Y-76262676D01*
X80765351Y-76262676D02*
X80717732Y-76167438D01*
X80717732Y-76167438D02*
X80622494Y-76024580D01*
X80622494Y-76024580D02*
X80574875Y-75976961D01*
M02*
