%TF.GenerationSoftware,KiCad,Pcbnew,7.0.5*%
%TF.CreationDate,2023-09-23T20:40:57+01:00*%
%TF.ProjectId,buttonsSuper,62757474-6f6e-4735-9375-7065722e6b69,rev?*%
%TF.SameCoordinates,Original*%
%TF.FileFunction,OtherDrawing,Comment*%
%FSLAX46Y46*%
G04 Gerber Fmt 4.6, Leading zero omitted, Abs format (unit mm)*
G04 Created by KiCad (PCBNEW 7.0.5) date 2023-09-23 20:40:57*
%MOMM*%
%LPD*%
G01*
G04 APERTURE LIST*
%ADD10C,0.100000*%
G04 APERTURE END LIST*
%TO.C,C4*%
D10*
X112075000Y-96750000D02*
X108075000Y-96750000D01*
X108075000Y-89750000D01*
X112075000Y-89750000D01*
X112075000Y-96750000D01*
G36*
X112075000Y-96750000D02*
G01*
X108075000Y-96750000D01*
X108075000Y-89750000D01*
X112075000Y-89750000D01*
X112075000Y-96750000D01*
G37*
%TO.C,C3*%
X163677600Y-122001565D02*
X158317600Y-122001565D01*
X158325600Y-117496565D01*
X163685600Y-117496565D01*
X163677600Y-122001565D01*
G36*
X163677600Y-122001565D02*
G01*
X158317600Y-122001565D01*
X158325600Y-117496565D01*
X163685600Y-117496565D01*
X163677600Y-122001565D01*
G37*
%TO.C,C7*%
X147256014Y-60327085D02*
X147256014Y-65687085D01*
X141746014Y-65679085D01*
X141746014Y-60319085D01*
X147256014Y-60327085D01*
G36*
X147256014Y-60327085D02*
G01*
X147256014Y-65687085D01*
X141746014Y-65679085D01*
X141746014Y-60319085D01*
X147256014Y-60327085D01*
G37*
%TO.C,C1*%
X161750000Y-130750000D02*
X159312000Y-130755000D01*
X159320000Y-125245000D01*
X161750000Y-125245000D01*
X161750000Y-130750000D01*
G36*
X161750000Y-130750000D02*
G01*
X159312000Y-130755000D01*
X159320000Y-125245000D01*
X161750000Y-125245000D01*
X161750000Y-130750000D01*
G37*
%TO.C,C2*%
X76005000Y-119188000D02*
X70495000Y-119180000D01*
X70495000Y-116750000D01*
X76000000Y-116750000D01*
X76005000Y-119188000D01*
G36*
X76005000Y-119188000D02*
G01*
X70495000Y-119180000D01*
X70495000Y-116750000D01*
X76000000Y-116750000D01*
X76005000Y-119188000D01*
G37*
%TO.C,C5*%
X68688000Y-107755000D02*
X63328000Y-107755000D01*
X63320000Y-102245000D01*
X68680000Y-102245000D01*
X68688000Y-107755000D01*
G36*
X68688000Y-107755000D02*
G01*
X63328000Y-107755000D01*
X63320000Y-102245000D01*
X68680000Y-102245000D01*
X68688000Y-107755000D01*
G37*
%TD*%
M02*
