%TF.GenerationSoftware,KiCad,Pcbnew,7.0.5*%
%TF.CreationDate,2023-06-28T16:16:01+01:00*%
%TF.ProjectId,buttonsSuper,62757474-6f6e-4735-9375-7065722e6b69,rev?*%
%TF.SameCoordinates,Original*%
%TF.FileFunction,Legend,Top*%
%TF.FilePolarity,Positive*%
%FSLAX46Y46*%
G04 Gerber Fmt 4.6, Leading zero omitted, Abs format (unit mm)*
G04 Created by KiCad (PCBNEW 7.0.5) date 2023-06-28 16:16:01*
%MOMM*%
%LPD*%
G01*
G04 APERTURE LIST*
%ADD10C,0.150000*%
%ADD11C,0.100000*%
%ADD12C,0.120000*%
%ADD13C,0.059995*%
%ADD14C,0.254001*%
G04 APERTURE END LIST*
D10*
X184125000Y-137125000D02*
X184125000Y-142750000D01*
D11*
X183375002Y-122625000D02*
G75*
G03*
X187605156Y-130166215I7499998J-750000D01*
G01*
X187875001Y-131375000D02*
X187875000Y-130625000D01*
X192875000Y-136625000D02*
X192875000Y-135125000D01*
X190071227Y-131109492D02*
G75*
G03*
X190071227Y-131109492I-696227J0D01*
G01*
X166375000Y-105875000D02*
X166625000Y-105875000D01*
X191875000Y-113875000D02*
G75*
G03*
X191875000Y-113875000I-1000000J0D01*
G01*
X199582107Y-118875000D02*
G75*
G03*
X199582107Y-118875000I-707107J0D01*
G01*
X155165569Y-109625000D02*
G75*
G03*
X155165569Y-109625000I-790569J0D01*
G01*
X185934017Y-137875000D02*
G75*
G03*
X185934017Y-137875000I-559017J0D01*
G01*
X184625000Y-136625000D02*
X192875000Y-136625000D01*
X187875000Y-130625000D02*
X187605156Y-130166215D01*
X178125000Y-107875000D02*
X178125000Y-118125000D01*
X184125000Y-145625000D02*
X185375000Y-145625000D01*
X192875000Y-135125000D02*
X191625000Y-131375000D01*
X178125000Y-118125000D02*
X183375001Y-122625000D01*
X195184017Y-145125000D02*
G75*
G03*
X195184017Y-145125000I-559017J0D01*
G01*
X178125000Y-107875000D02*
X174875000Y-107875000D01*
X182665569Y-118875000D02*
G75*
G03*
X182665569Y-118875000I-790569J0D01*
G01*
X184625000Y-136625000D02*
G75*
G03*
X184125000Y-137125000I0J-500000D01*
G01*
X196625000Y-99125000D02*
G75*
G03*
X197625000Y-99125000I500000J0D01*
G01*
X197625000Y-98125000D02*
G75*
G03*
X196625000Y-98125000I-500000J0D01*
G01*
X197625000Y-98125000D02*
X197625000Y-99125000D01*
X178000000Y-137250000D02*
X147000000Y-137250000D01*
X191625000Y-131375000D02*
X190875000Y-131375000D01*
X196625000Y-99125000D02*
X196625000Y-98125000D01*
X187875001Y-131375000D02*
G75*
G03*
X190874999Y-131375000I1499999J265499D01*
G01*
X185375000Y-146375000D02*
G75*
G03*
X185375000Y-145625000I0J375000D01*
G01*
X185375000Y-146375000D02*
X184125000Y-146375000D01*
X174875000Y-107875000D02*
X164875000Y-118625000D01*
X145630000Y-118624746D02*
X164875000Y-118625000D01*
D10*
%TO.C,U3*%
X82488095Y-109804768D02*
X82488095Y-110614291D01*
X82488095Y-110614291D02*
X82535714Y-110709529D01*
X82535714Y-110709529D02*
X82583333Y-110757149D01*
X82583333Y-110757149D02*
X82678571Y-110804768D01*
X82678571Y-110804768D02*
X82869047Y-110804768D01*
X82869047Y-110804768D02*
X82964285Y-110757149D01*
X82964285Y-110757149D02*
X83011904Y-110709529D01*
X83011904Y-110709529D02*
X83059523Y-110614291D01*
X83059523Y-110614291D02*
X83059523Y-109804768D01*
X83440476Y-109804768D02*
X84059523Y-109804768D01*
X84059523Y-109804768D02*
X83726190Y-110185720D01*
X83726190Y-110185720D02*
X83869047Y-110185720D01*
X83869047Y-110185720D02*
X83964285Y-110233339D01*
X83964285Y-110233339D02*
X84011904Y-110280958D01*
X84011904Y-110280958D02*
X84059523Y-110376196D01*
X84059523Y-110376196D02*
X84059523Y-110614291D01*
X84059523Y-110614291D02*
X84011904Y-110709529D01*
X84011904Y-110709529D02*
X83964285Y-110757149D01*
X83964285Y-110757149D02*
X83869047Y-110804768D01*
X83869047Y-110804768D02*
X83583333Y-110804768D01*
X83583333Y-110804768D02*
X83488095Y-110757149D01*
X83488095Y-110757149D02*
X83440476Y-110709529D01*
%TO.C,C2*%
X191054123Y-89291159D02*
X191101743Y-89338778D01*
X191101743Y-89338778D02*
X191149362Y-89481635D01*
X191149362Y-89481635D02*
X191149362Y-89576873D01*
X191149362Y-89576873D02*
X191101743Y-89719730D01*
X191101743Y-89719730D02*
X191006504Y-89814968D01*
X191006504Y-89814968D02*
X190911266Y-89862587D01*
X190911266Y-89862587D02*
X190720790Y-89910206D01*
X190720790Y-89910206D02*
X190577933Y-89910206D01*
X190577933Y-89910206D02*
X190387457Y-89862587D01*
X190387457Y-89862587D02*
X190292219Y-89814968D01*
X190292219Y-89814968D02*
X190196981Y-89719730D01*
X190196981Y-89719730D02*
X190149362Y-89576873D01*
X190149362Y-89576873D02*
X190149362Y-89481635D01*
X190149362Y-89481635D02*
X190196981Y-89338778D01*
X190196981Y-89338778D02*
X190244600Y-89291159D01*
X190244600Y-88910206D02*
X190196981Y-88862587D01*
X190196981Y-88862587D02*
X190149362Y-88767349D01*
X190149362Y-88767349D02*
X190149362Y-88529254D01*
X190149362Y-88529254D02*
X190196981Y-88434016D01*
X190196981Y-88434016D02*
X190244600Y-88386397D01*
X190244600Y-88386397D02*
X190339838Y-88338778D01*
X190339838Y-88338778D02*
X190435076Y-88338778D01*
X190435076Y-88338778D02*
X190577933Y-88386397D01*
X190577933Y-88386397D02*
X191149362Y-88957825D01*
X191149362Y-88957825D02*
X191149362Y-88338778D01*
%TO.C,U2*%
X89988095Y-117304768D02*
X89988095Y-118114291D01*
X89988095Y-118114291D02*
X90035714Y-118209529D01*
X90035714Y-118209529D02*
X90083333Y-118257149D01*
X90083333Y-118257149D02*
X90178571Y-118304768D01*
X90178571Y-118304768D02*
X90369047Y-118304768D01*
X90369047Y-118304768D02*
X90464285Y-118257149D01*
X90464285Y-118257149D02*
X90511904Y-118209529D01*
X90511904Y-118209529D02*
X90559523Y-118114291D01*
X90559523Y-118114291D02*
X90559523Y-117304768D01*
X90988095Y-117400006D02*
X91035714Y-117352387D01*
X91035714Y-117352387D02*
X91130952Y-117304768D01*
X91130952Y-117304768D02*
X91369047Y-117304768D01*
X91369047Y-117304768D02*
X91464285Y-117352387D01*
X91464285Y-117352387D02*
X91511904Y-117400006D01*
X91511904Y-117400006D02*
X91559523Y-117495244D01*
X91559523Y-117495244D02*
X91559523Y-117590482D01*
X91559523Y-117590482D02*
X91511904Y-117733339D01*
X91511904Y-117733339D02*
X90940476Y-118304768D01*
X90940476Y-118304768D02*
X91559523Y-118304768D01*
%TO.C,U5*%
X82488095Y-125204819D02*
X82488095Y-126014342D01*
X82488095Y-126014342D02*
X82535714Y-126109580D01*
X82535714Y-126109580D02*
X82583333Y-126157200D01*
X82583333Y-126157200D02*
X82678571Y-126204819D01*
X82678571Y-126204819D02*
X82869047Y-126204819D01*
X82869047Y-126204819D02*
X82964285Y-126157200D01*
X82964285Y-126157200D02*
X83011904Y-126109580D01*
X83011904Y-126109580D02*
X83059523Y-126014342D01*
X83059523Y-126014342D02*
X83059523Y-125204819D01*
X84011904Y-125204819D02*
X83535714Y-125204819D01*
X83535714Y-125204819D02*
X83488095Y-125681009D01*
X83488095Y-125681009D02*
X83535714Y-125633390D01*
X83535714Y-125633390D02*
X83630952Y-125585771D01*
X83630952Y-125585771D02*
X83869047Y-125585771D01*
X83869047Y-125585771D02*
X83964285Y-125633390D01*
X83964285Y-125633390D02*
X84011904Y-125681009D01*
X84011904Y-125681009D02*
X84059523Y-125776247D01*
X84059523Y-125776247D02*
X84059523Y-126014342D01*
X84059523Y-126014342D02*
X84011904Y-126109580D01*
X84011904Y-126109580D02*
X83964285Y-126157200D01*
X83964285Y-126157200D02*
X83869047Y-126204819D01*
X83869047Y-126204819D02*
X83630952Y-126204819D01*
X83630952Y-126204819D02*
X83535714Y-126157200D01*
X83535714Y-126157200D02*
X83488095Y-126109580D01*
%TO.C,C1*%
X147990037Y-115541919D02*
X148037657Y-115589538D01*
X148037657Y-115589538D02*
X148085276Y-115732395D01*
X148085276Y-115732395D02*
X148085276Y-115827633D01*
X148085276Y-115827633D02*
X148037657Y-115970490D01*
X148037657Y-115970490D02*
X147942418Y-116065728D01*
X147942418Y-116065728D02*
X147847180Y-116113347D01*
X147847180Y-116113347D02*
X147656704Y-116160966D01*
X147656704Y-116160966D02*
X147513847Y-116160966D01*
X147513847Y-116160966D02*
X147323371Y-116113347D01*
X147323371Y-116113347D02*
X147228133Y-116065728D01*
X147228133Y-116065728D02*
X147132895Y-115970490D01*
X147132895Y-115970490D02*
X147085276Y-115827633D01*
X147085276Y-115827633D02*
X147085276Y-115732395D01*
X147085276Y-115732395D02*
X147132895Y-115589538D01*
X147132895Y-115589538D02*
X147180514Y-115541919D01*
X148085276Y-114589538D02*
X148085276Y-115160966D01*
X148085276Y-114875252D02*
X147085276Y-114875252D01*
X147085276Y-114875252D02*
X147228133Y-114970490D01*
X147228133Y-114970490D02*
X147323371Y-115065728D01*
X147323371Y-115065728D02*
X147370990Y-115160966D01*
%TO.C,U1*%
X80808072Y-88804768D02*
X80808072Y-89614291D01*
X80808072Y-89614291D02*
X80855691Y-89709529D01*
X80855691Y-89709529D02*
X80903310Y-89757149D01*
X80903310Y-89757149D02*
X80998548Y-89804768D01*
X80998548Y-89804768D02*
X81189024Y-89804768D01*
X81189024Y-89804768D02*
X81284262Y-89757149D01*
X81284262Y-89757149D02*
X81331881Y-89709529D01*
X81331881Y-89709529D02*
X81379500Y-89614291D01*
X81379500Y-89614291D02*
X81379500Y-88804768D01*
X82379500Y-89804768D02*
X81808072Y-89804768D01*
X82093786Y-89804768D02*
X82093786Y-88804768D01*
X82093786Y-88804768D02*
X81998548Y-88947625D01*
X81998548Y-88947625D02*
X81903310Y-89042863D01*
X81903310Y-89042863D02*
X81808072Y-89090482D01*
%TO.C,U4*%
X74988095Y-117304768D02*
X74988095Y-118114291D01*
X74988095Y-118114291D02*
X75035714Y-118209529D01*
X75035714Y-118209529D02*
X75083333Y-118257149D01*
X75083333Y-118257149D02*
X75178571Y-118304768D01*
X75178571Y-118304768D02*
X75369047Y-118304768D01*
X75369047Y-118304768D02*
X75464285Y-118257149D01*
X75464285Y-118257149D02*
X75511904Y-118209529D01*
X75511904Y-118209529D02*
X75559523Y-118114291D01*
X75559523Y-118114291D02*
X75559523Y-117304768D01*
X76464285Y-117638101D02*
X76464285Y-118304768D01*
X76226190Y-117257149D02*
X75988095Y-117971434D01*
X75988095Y-117971434D02*
X76607142Y-117971434D01*
D12*
%TO.C,C2*%
X180500000Y-137250000D02*
X178000000Y-137250000D01*
X180500000Y-142750000D02*
X180500000Y-137250000D01*
X178000000Y-142750000D02*
X180500000Y-142750000D01*
X178000000Y-137250000D02*
X178000000Y-142750000D01*
D13*
%TO.C,U3*%
X80879997Y-112350127D02*
G75*
G03*
X80879997Y-112350127I-29997J0D01*
G01*
D14*
X85027877Y-114750000D02*
G75*
G03*
X85027877Y-114750000I-1778004J0D01*
G01*
X83757874Y-114750000D02*
G75*
G03*
X83757874Y-114750000I-508001J0D01*
G01*
X85650000Y-113550127D02*
X85650000Y-116050127D01*
X80850000Y-113481267D02*
X80850000Y-116050127D01*
X82050991Y-112349949D02*
X84448755Y-112349949D01*
X84448755Y-117150051D02*
X82050991Y-117150051D01*
D12*
%TO.C,C2*%
X197055000Y-86125000D02*
X197054085Y-90625000D01*
X192694085Y-90625000D02*
X197054085Y-90625000D01*
X192695000Y-86125000D02*
X192694085Y-90625000D01*
X192695000Y-86125000D02*
X197055000Y-86125000D01*
%TO.C,C3*%
X102125000Y-105875000D02*
X102125000Y-100375000D01*
D13*
%TO.C,U2*%
X88379997Y-119850127D02*
G75*
G03*
X88379997Y-119850127I-29997J0D01*
G01*
D14*
X92527877Y-122250000D02*
G75*
G03*
X92527877Y-122250000I-1778004J0D01*
G01*
X91257874Y-122250000D02*
G75*
G03*
X91257874Y-122250000I-508001J0D01*
G01*
X93150000Y-121050127D02*
X93150000Y-123550127D01*
X88350000Y-120981267D02*
X88350000Y-123550127D01*
X89550991Y-119849949D02*
X91948755Y-119849949D01*
X91948755Y-124650051D02*
X89550991Y-124650051D01*
D13*
%TO.C,U5*%
X80879997Y-127350127D02*
G75*
G03*
X80879997Y-127350127I-29997J0D01*
G01*
D14*
X85027877Y-129750000D02*
G75*
G03*
X85027877Y-129750000I-1778004J0D01*
G01*
X83757874Y-129750000D02*
G75*
G03*
X83757874Y-129750000I-508001J0D01*
G01*
X85650000Y-128550127D02*
X85650000Y-131050127D01*
X80850000Y-128481267D02*
X80850000Y-131050127D01*
X82050991Y-127349949D02*
X84448755Y-127349949D01*
X84448755Y-132150051D02*
X82050991Y-132150051D01*
D12*
%TO.C,C1*%
X104250000Y-131250000D02*
X109750000Y-131250000D01*
X141270000Y-118624746D02*
X141270915Y-111125253D01*
X145630000Y-118624746D02*
X145630915Y-111125253D01*
X145630915Y-111125253D02*
X141270915Y-111125253D01*
X145630000Y-118624746D02*
X141270000Y-118624746D01*
D13*
%TO.C,U1*%
X79199974Y-91350127D02*
G75*
G03*
X79199974Y-91350127I-29997J0D01*
G01*
D14*
X83347854Y-93750000D02*
G75*
G03*
X83347854Y-93750000I-1778004J0D01*
G01*
X82077851Y-93750000D02*
G75*
G03*
X82077851Y-93750000I-508001J0D01*
G01*
X83969977Y-92550127D02*
X83969977Y-95050127D01*
X79169977Y-92481267D02*
X79169977Y-95050127D01*
X80370968Y-91349949D02*
X82768732Y-91349949D01*
X82768732Y-96150051D02*
X80370968Y-96150051D01*
D13*
%TO.C,U4*%
X73379997Y-119850127D02*
G75*
G03*
X73379997Y-119850127I-29997J0D01*
G01*
D14*
X77527877Y-122250000D02*
G75*
G03*
X77527877Y-122250000I-1778004J0D01*
G01*
X76257874Y-122250000D02*
G75*
G03*
X76257874Y-122250000I-508001J0D01*
G01*
X78150000Y-121050127D02*
X78150000Y-123550127D01*
X73350000Y-120981267D02*
X73350000Y-123550127D01*
X74550991Y-119849949D02*
X76948755Y-119849949D01*
X76948755Y-124650051D02*
X74550991Y-124650051D01*
%TD*%
M02*
