%TF.GenerationSoftware,KiCad,Pcbnew,7.0.5*%
%TF.CreationDate,2023-06-28T16:16:01+01:00*%
%TF.ProjectId,buttonsSuper,62757474-6f6e-4735-9375-7065722e6b69,rev?*%
%TF.SameCoordinates,Original*%
%TF.FileFunction,Soldermask,Top*%
%TF.FilePolarity,Negative*%
%FSLAX46Y46*%
G04 Gerber Fmt 4.6, Leading zero omitted, Abs format (unit mm)*
G04 Created by KiCad (PCBNEW 7.0.5) date 2023-06-28 16:16:01*
%MOMM*%
%LPD*%
G01*
G04 APERTURE LIST*
%ADD10R,2.000000X0.250000*%
%ADD11R,1.000000X0.900000*%
%ADD12R,4.000000X0.250000*%
%ADD13R,0.250000X2.000000*%
G04 APERTURE END LIST*
D10*
%TO.C,C2*%
X179250000Y-137750000D03*
X179250000Y-138250000D03*
X179250000Y-138750000D03*
X179250000Y-139250000D03*
X179250000Y-139750000D03*
X179250000Y-140250000D03*
X179250000Y-140750000D03*
X179250000Y-141250000D03*
X179250000Y-141750000D03*
X179250000Y-142250000D03*
%TD*%
D11*
%TO.C,U3*%
X81319977Y-112800038D03*
X81319977Y-116700216D03*
X85180023Y-112800038D03*
X85180023Y-116700216D03*
%TD*%
D12*
%TO.C,C2*%
X194875000Y-90125000D03*
X194875000Y-87625000D03*
X194875000Y-89125000D03*
X194875000Y-86625000D03*
X194875000Y-88625000D03*
X194875000Y-88125000D03*
X194875000Y-87125000D03*
X194875000Y-89625000D03*
%TD*%
D10*
%TO.C,C3*%
X100875000Y-105375000D03*
X100875000Y-104875000D03*
X100875000Y-104375000D03*
X100875000Y-103875000D03*
X100875000Y-103375000D03*
X100875000Y-102875000D03*
X100875000Y-102375000D03*
X100875000Y-101875000D03*
X100875000Y-101375000D03*
X100875000Y-100875000D03*
%TD*%
D11*
%TO.C,U2*%
X88819977Y-120300038D03*
X88819977Y-124200216D03*
X92680023Y-120300038D03*
X92680023Y-124200216D03*
%TD*%
%TO.C,U5*%
X81319977Y-127800038D03*
X81319977Y-131700216D03*
X85180023Y-127800038D03*
X85180023Y-131700216D03*
%TD*%
D13*
%TO.C,C1*%
X104750000Y-130000000D03*
X105250000Y-130000000D03*
X105750000Y-130000000D03*
X106250000Y-130000000D03*
X106750000Y-130000000D03*
X107250000Y-130000000D03*
X107750000Y-130000000D03*
X108250000Y-130000000D03*
X108750000Y-130000000D03*
X109250000Y-130000000D03*
%TD*%
D12*
%TO.C,C1*%
X143450000Y-118125253D03*
X143450000Y-117625253D03*
X143450000Y-117125253D03*
X143450000Y-116625253D03*
X143450000Y-116125253D03*
X143450000Y-115625253D03*
X143450000Y-115125253D03*
X143450000Y-114625253D03*
X143450000Y-114125253D03*
X143450000Y-113625253D03*
X143450000Y-113125253D03*
X143450000Y-112625253D03*
X143450000Y-112125253D03*
X143450000Y-111625253D03*
%TD*%
D11*
%TO.C,U1*%
X79639954Y-91800038D03*
X79639954Y-95700216D03*
X83500000Y-91800038D03*
X83500000Y-95700216D03*
%TD*%
%TO.C,U4*%
X73819977Y-120300038D03*
X73819977Y-124200216D03*
X77680023Y-120300038D03*
X77680023Y-124200216D03*
%TD*%
M02*
