%TF.GenerationSoftware,KiCad,Pcbnew,7.0.5*%
%TF.CreationDate,2023-06-28T16:16:01+01:00*%
%TF.ProjectId,buttonsSuper,62757474-6f6e-4735-9375-7065722e6b69,rev?*%
%TF.SameCoordinates,Original*%
%TF.FileFunction,Copper,L1,Top*%
%TF.FilePolarity,Positive*%
%FSLAX46Y46*%
G04 Gerber Fmt 4.6, Leading zero omitted, Abs format (unit mm)*
G04 Created by KiCad (PCBNEW 7.0.5) date 2023-06-28 16:16:01*
%MOMM*%
%LPD*%
G01*
G04 APERTURE LIST*
G04 Aperture macros list*
%AMFreePoly0*
4,1,5,0.125000,-1.000000,-0.125000,-1.000000,-0.125000,9.000000,0.125000,9.000000,0.125000,-1.000000,0.125000,-1.000000,$1*%
G04 Aperture macros list end*
%TA.AperFunction,SMDPad,CuDef*%
%ADD10R,2.000000X0.250000*%
%TD*%
%TA.AperFunction,SMDPad,CuDef*%
%ADD11R,1.000000X0.900000*%
%TD*%
%TA.AperFunction,SMDPad,CuDef*%
%ADD12FreePoly0,270.000000*%
%TD*%
%TA.AperFunction,SMDPad,CuDef*%
%ADD13R,0.250000X2.000000*%
%TD*%
%TA.AperFunction,SMDPad,CuDef*%
%ADD14R,4.000000X0.250000*%
%TD*%
%TA.AperFunction,ViaPad*%
%ADD15C,0.800000*%
%TD*%
%TA.AperFunction,Conductor*%
%ADD16C,0.250000*%
%TD*%
G04 APERTURE END LIST*
D10*
%TO.P,C2,1,1*%
%TO.N,N/C*%
X179250000Y-137750000D03*
%TO.P,C2,2,2*%
X179250000Y-138250000D03*
%TO.P,C2,3,3*%
X179250000Y-138750000D03*
%TO.P,C2,4,4*%
X179250000Y-139250000D03*
%TO.P,C2,5,5*%
X179250000Y-139750000D03*
%TO.P,C2,6,6*%
X179250000Y-140250000D03*
%TO.P,C2,7,7*%
X179250000Y-140750000D03*
%TO.P,C2,8,8*%
X179250000Y-141250000D03*
%TO.P,C2,9,9*%
X179250000Y-141750000D03*
%TO.P,C2,10,10*%
X179250000Y-142250000D03*
%TD*%
D11*
%TO.P,U3,1,1*%
%TO.N,N/C*%
X81319977Y-112800038D03*
%TO.P,U3,2,2*%
X81319977Y-116700216D03*
%TO.P,U3,3,3*%
X85180023Y-112800038D03*
%TO.P,U3,4,4*%
X85180023Y-116700216D03*
%TD*%
D12*
%TO.P,C2,1,1*%
%TO.N,N/C*%
X187875000Y-86625000D03*
%TO.P,C2,2,2*%
X187875000Y-87125000D03*
%TO.P,C2,3,3*%
X187875000Y-87625000D03*
%TO.P,C2,4,4*%
X187875000Y-88125000D03*
%TO.P,C2,5,5*%
X187875000Y-88625000D03*
%TO.P,C2,6,6*%
X187875000Y-89125000D03*
%TO.P,C2,7,7*%
X187875000Y-89625000D03*
%TO.P,C2,8,8*%
X187875000Y-90125000D03*
%TD*%
D10*
%TO.P,C3,1,1*%
%TO.N,N/C*%
X100875000Y-105375000D03*
%TO.P,C3,2,2*%
X100875000Y-104875000D03*
%TO.P,C3,3,3*%
X100875000Y-104375000D03*
%TO.P,C3,4,4*%
X100875000Y-103875000D03*
%TO.P,C3,5,5*%
X100875000Y-103375000D03*
%TO.P,C3,6,6*%
X100875000Y-102875000D03*
%TO.P,C3,7,7*%
X100875000Y-102375000D03*
%TO.P,C3,8,8*%
X100875000Y-101875000D03*
%TO.P,C3,9,9*%
X100875000Y-101375000D03*
%TO.P,C3,10,10*%
X100875000Y-100875000D03*
%TD*%
D11*
%TO.P,U2,1,1*%
%TO.N,N/C*%
X88819977Y-120300038D03*
%TO.P,U2,2,2*%
X88819977Y-124200216D03*
%TO.P,U2,3,3*%
X92680023Y-120300038D03*
%TO.P,U2,4,4*%
X92680023Y-124200216D03*
%TD*%
%TO.P,U5,1,1*%
%TO.N,N/C*%
X81319977Y-127800038D03*
%TO.P,U5,2,2*%
X81319977Y-131700216D03*
%TO.P,U5,3,3*%
X85180023Y-127800038D03*
%TO.P,U5,4,4*%
X85180023Y-131700216D03*
%TD*%
D13*
%TO.P,C1,1,1*%
%TO.N,N/C*%
X104750000Y-130000000D03*
%TO.P,C1,2,2*%
X105250000Y-130000000D03*
%TO.P,C1,3,3*%
X105750000Y-130000000D03*
%TO.P,C1,4,4*%
X106250000Y-130000000D03*
%TO.P,C1,5,5*%
X106750000Y-130000000D03*
%TO.P,C1,6,6*%
X107250000Y-130000000D03*
%TO.P,C1,7,7*%
X107750000Y-130000000D03*
%TO.P,C1,8,8*%
X108250000Y-130000000D03*
%TO.P,C1,9,9*%
X108750000Y-130000000D03*
%TO.P,C1,10,10*%
X109250000Y-130000000D03*
%TD*%
D14*
%TO.P,C1,1,1*%
%TO.N,N/C*%
X143450000Y-118125253D03*
%TO.P,C1,2,2*%
X143450000Y-117625253D03*
%TO.P,C1,3,3*%
X143450000Y-117125253D03*
%TO.P,C1,4,4*%
X143450000Y-116625253D03*
%TO.P,C1,5,5*%
X143450000Y-116125253D03*
%TO.P,C1,6,6*%
X143450000Y-115625253D03*
%TO.P,C1,7,7*%
X143450000Y-115125253D03*
%TO.P,C1,8,8*%
X143450000Y-114625253D03*
%TO.P,C1,9,9*%
X143450000Y-114125253D03*
%TO.P,C1,10,10*%
X143450000Y-113625253D03*
%TO.P,C1,11,11*%
X143450000Y-113125253D03*
%TO.P,C1,12,12*%
X143450000Y-112625253D03*
%TO.P,C1,13,13*%
X143450000Y-112125253D03*
%TO.P,C1,14,14*%
X143450000Y-111625253D03*
%TD*%
D11*
%TO.P,U1,1,1*%
%TO.N,N/C*%
X79639954Y-91800038D03*
%TO.P,U1,2,2*%
X79639954Y-95700216D03*
%TO.P,U1,3,3*%
X83500000Y-91800038D03*
%TO.P,U1,4,4*%
X83500000Y-95700216D03*
%TD*%
%TO.P,U4,1,1*%
%TO.N,N/C*%
X73819977Y-120300038D03*
%TO.P,U4,2,2*%
X73819977Y-124200216D03*
%TO.P,U4,3,3*%
X77680023Y-120300038D03*
%TO.P,U4,4,4*%
X77680023Y-124200216D03*
%TD*%
D15*
%TO.N,*%
X186625000Y-104875000D03*
X100500000Y-138500000D03*
X106642691Y-140673511D03*
X94750000Y-141250000D03*
X91250000Y-126250000D03*
X166875000Y-103625000D03*
X98250000Y-139500000D03*
X111000000Y-140750000D03*
X85500000Y-126000000D03*
X91500000Y-129250000D03*
X167625000Y-105625000D03*
X77750000Y-118500000D03*
X192125000Y-99875000D03*
X183625000Y-106375000D03*
X166375000Y-102625000D03*
X190875000Y-138625000D03*
X91250000Y-127750000D03*
X108500000Y-139224500D03*
X95750000Y-140500000D03*
X189625000Y-120125000D03*
X167125000Y-104625000D03*
X97250000Y-139873539D03*
X109250000Y-138000000D03*
X85250000Y-110750000D03*
X196875000Y-116125000D03*
X179625000Y-109875000D03*
X164875000Y-100875000D03*
X105750000Y-141500000D03*
X107500000Y-139949011D03*
X165625000Y-101625000D03*
X99500000Y-139000000D03*
%TD*%
D16*
%TO.N,*%
X163624747Y-118125253D02*
X143450000Y-118125253D01*
X181875000Y-99215812D02*
X181875000Y-88875000D01*
X166375000Y-102625000D02*
X165125000Y-103875000D01*
X104750000Y-138000000D02*
X104250000Y-138500000D01*
X184625000Y-89625000D02*
X184375000Y-89875000D01*
X87250000Y-127000000D02*
X87250000Y-130750000D01*
X91750000Y-131000000D02*
X87500000Y-126750000D01*
X110135718Y-138250000D02*
X179250000Y-138250000D01*
X93997600Y-140497600D02*
X93569014Y-140497600D01*
X99199520Y-138699520D02*
X94313802Y-138699520D01*
X93941408Y-139598560D02*
X92651440Y-138308592D01*
X143450000Y-113625253D02*
X163624747Y-113625253D01*
X167625000Y-105625000D02*
X167375000Y-105375000D01*
X94313802Y-138699520D02*
X93550480Y-137936197D01*
X81319977Y-131700216D02*
X81319977Y-132319977D01*
X187875000Y-88625000D02*
X184125000Y-88625000D01*
X95750000Y-140500000D02*
X95298080Y-140048080D01*
X81319977Y-127180023D02*
X81500000Y-127000000D01*
X108214293Y-137714293D02*
X109250000Y-136678585D01*
X143450253Y-112125000D02*
X143450000Y-112125253D01*
X94127604Y-139149039D02*
X97899039Y-139149039D01*
X165625000Y-101625000D02*
X163875000Y-103375000D01*
X143450000Y-111625253D02*
X162874747Y-111625253D01*
X183875000Y-89625000D02*
X184375000Y-89125000D01*
X183875000Y-99875000D02*
X183875000Y-89625000D01*
X94899040Y-141399040D02*
X104622395Y-141399040D01*
X109762307Y-138512307D02*
X109873411Y-138512307D01*
X183852208Y-87625000D02*
X182375000Y-89102208D01*
X189625000Y-119375000D02*
X187375000Y-117125000D01*
X177250000Y-141250000D02*
X176250000Y-140250000D01*
X94750000Y-141250000D02*
X93997600Y-140497600D01*
X174125000Y-105375000D02*
X162874747Y-116625253D01*
X179625000Y-108125000D02*
X178375000Y-106875000D01*
X87500000Y-117250000D02*
X87500000Y-123500000D01*
X87500000Y-126750000D02*
X88819977Y-125430023D01*
X174875000Y-106875000D02*
X163624747Y-118125253D01*
X109250000Y-130000000D02*
X109250000Y-136678585D01*
X182375000Y-117125000D02*
X181875000Y-116625000D01*
X105750000Y-141500000D02*
X108885718Y-141500000D01*
X179215812Y-101875000D02*
X181875000Y-99215812D01*
X84750000Y-132750000D02*
X85180023Y-132319977D01*
X182375000Y-99352208D02*
X179352208Y-102375000D01*
X108750000Y-130000000D02*
X108750000Y-137178586D01*
X163875000Y-103375000D02*
X100875000Y-103375000D01*
X92680023Y-120300038D02*
X92680023Y-119430023D01*
X73819977Y-125069977D02*
X74250000Y-125500000D01*
X84000000Y-112000000D02*
X85250000Y-110750000D01*
X183625000Y-87125000D02*
X187875000Y-87125000D01*
X166375000Y-103625000D02*
X165625000Y-104375000D01*
X162874747Y-115125253D02*
X163000000Y-115000000D01*
X93550480Y-137936197D02*
X93550480Y-120800480D01*
X73819977Y-119680023D02*
X74500000Y-119000000D01*
X85250000Y-110750000D02*
X85250000Y-112730061D01*
X85180023Y-116700216D02*
X86950216Y-116700216D01*
X73920307Y-124099886D02*
X73819977Y-124200216D01*
X162874747Y-111625253D02*
X172625000Y-101875000D01*
X97876461Y-140500000D02*
X97250000Y-139873539D01*
X100250000Y-138250000D02*
X94500000Y-138250000D01*
X83500000Y-91250000D02*
X84250000Y-90500000D01*
X107750000Y-130000000D02*
X107750000Y-138178586D01*
X167375000Y-105375000D02*
X100875000Y-105375000D01*
X77000000Y-125500000D02*
X77680023Y-124819977D01*
X166875000Y-103625000D02*
X166375000Y-103625000D01*
X190875000Y-138625000D02*
X192875000Y-138625000D01*
X105728566Y-138271434D02*
X105699520Y-138300480D01*
X165625000Y-104375000D02*
X100875000Y-104375000D01*
X88819977Y-119930023D02*
X88819977Y-120300038D01*
X81319977Y-112180023D02*
X81500000Y-112000000D01*
X187238604Y-117625000D02*
X187625000Y-118011396D01*
X189625000Y-120125000D02*
X189625000Y-119375000D01*
X96199520Y-140949520D02*
X104436197Y-140949520D01*
X93100960Y-138122395D02*
X93100960Y-127850960D01*
X184375000Y-89125000D02*
X187875000Y-89125000D01*
X81319977Y-132319977D02*
X81750000Y-132750000D01*
X104250000Y-138500000D02*
X100500000Y-138500000D01*
X87500000Y-126750000D02*
X87250000Y-127000000D01*
X78750000Y-124099886D02*
X80250000Y-122599886D01*
X85500000Y-127480061D02*
X85180023Y-127800038D01*
X163261143Y-117625253D02*
X174511396Y-106375000D01*
X182625000Y-116625000D02*
X196375000Y-116625000D01*
X88200216Y-124200216D02*
X88819977Y-124200216D01*
X183988604Y-88125000D02*
X182875000Y-89238604D01*
X187875000Y-87625000D02*
X183852208Y-87625000D01*
X85250000Y-112730061D02*
X85180023Y-112800038D01*
X87250000Y-130750000D02*
X86299784Y-131700216D01*
X163874747Y-114125253D02*
X164000000Y-114000000D01*
X179250000Y-140750000D02*
X177250000Y-140750000D01*
X92651440Y-129151440D02*
X91250000Y-127750000D01*
X80250000Y-117770193D02*
X81319977Y-116700216D01*
X85180023Y-132319977D02*
X85180023Y-131700216D01*
X92201920Y-138494789D02*
X92201920Y-129951920D01*
X183625000Y-106375000D02*
X182375000Y-106375000D01*
X163624747Y-113625253D02*
X173375000Y-103875000D01*
X108885718Y-141500000D02*
X110635718Y-139750000D01*
X106642691Y-140673511D02*
X109076489Y-140673511D01*
X164000000Y-114000000D02*
X173625000Y-104375000D01*
X104622395Y-141399040D02*
X107250000Y-138771435D01*
X78649670Y-124200216D02*
X77680023Y-124200216D01*
X92680023Y-119430023D02*
X92500000Y-119250000D01*
X164875000Y-100875000D02*
X162875000Y-102875000D01*
X105699520Y-138321915D02*
X104021435Y-140000000D01*
X77250000Y-119000000D02*
X77750000Y-118500000D01*
X80350330Y-131700216D02*
X78750000Y-130099886D01*
X173625000Y-104375000D02*
X180875000Y-104375000D01*
X177250000Y-142250000D02*
X175250000Y-140250000D01*
X162874747Y-116625253D02*
X143450000Y-116625253D01*
X86950216Y-116700216D02*
X87500000Y-117250000D01*
X105750000Y-138271434D02*
X105728566Y-138271434D01*
X173375000Y-103875000D02*
X179875000Y-103875000D01*
X163488604Y-113125000D02*
X143450253Y-113125000D01*
X92250000Y-125250000D02*
X89000000Y-125250000D01*
X81750000Y-132750000D02*
X84750000Y-132750000D01*
X77750000Y-118500000D02*
X77750000Y-120230061D01*
X105750000Y-130000000D02*
X105750000Y-138271434D01*
X143450000Y-114125253D02*
X163874747Y-114125253D01*
X179625000Y-109875000D02*
X179625000Y-108125000D01*
X80250000Y-90500000D02*
X79639954Y-91110046D01*
X186125000Y-99125000D02*
X184375000Y-100875000D01*
X143450000Y-115625253D02*
X162374747Y-115625253D01*
X111500000Y-140250000D02*
X175250000Y-140250000D01*
X108500000Y-139224500D02*
X109050114Y-139224500D01*
X93550480Y-120800480D02*
X93050038Y-120300038D01*
X181375000Y-106647792D02*
X181375000Y-116875000D01*
X163374747Y-114625253D02*
X163375000Y-114625000D01*
X143450000Y-114625253D02*
X163374747Y-114625253D01*
X94000000Y-120000000D02*
X88000000Y-114000000D01*
X104135717Y-139250000D02*
X99750000Y-139250000D01*
X179352208Y-102375000D02*
X172875000Y-102375000D01*
X79569977Y-95700216D02*
X79670307Y-95599886D01*
X91750000Y-138678586D02*
X91750000Y-131000000D01*
X182875000Y-99488604D02*
X179488604Y-102875000D01*
X109076489Y-140673511D02*
X110500000Y-139250000D01*
X80350330Y-131700216D02*
X81319977Y-131700216D01*
X184375000Y-89875000D02*
X184375000Y-100875000D01*
X184375000Y-100875000D02*
X180875000Y-104375000D01*
X93569014Y-140497600D02*
X91750000Y-138678586D01*
X179625000Y-103375000D02*
X173238604Y-103375000D01*
X183375000Y-89375000D02*
X183375000Y-99625000D01*
X163351955Y-112625253D02*
X143450000Y-112625253D01*
X174511396Y-106375000D02*
X181102208Y-106375000D01*
X181375000Y-116875000D02*
X182125000Y-117625000D01*
X143450000Y-116125253D02*
X162624747Y-116125253D01*
X182375000Y-106375000D02*
X182375000Y-116375000D01*
X181238604Y-105875000D02*
X174375000Y-105875000D01*
X105699520Y-138300480D02*
X105699520Y-138321915D01*
X166875000Y-104875000D02*
X100875000Y-104875000D01*
X109750000Y-138000000D02*
X110000000Y-137750000D01*
X89500000Y-119250000D02*
X88819977Y-119930023D01*
X173238604Y-103375000D02*
X163488604Y-113125000D01*
X108250000Y-130000000D02*
X108250000Y-137678586D01*
X85180023Y-127800038D02*
X84980061Y-128000000D01*
X89000000Y-125250000D02*
X88819977Y-125430023D01*
X181375000Y-105375000D02*
X174125000Y-105375000D01*
X104436197Y-140949520D02*
X106750000Y-138635718D01*
X81500000Y-112000000D02*
X84000000Y-112000000D01*
X109873411Y-138512307D02*
X110135718Y-138250000D01*
X105250000Y-138135717D02*
X104135717Y-139250000D01*
X173102208Y-102875000D02*
X163351955Y-112625253D01*
X93755211Y-140048080D02*
X92201920Y-138494789D01*
X92651440Y-138308592D02*
X92651440Y-129151440D01*
X163375000Y-114625000D02*
X164000000Y-114000000D01*
X162624747Y-116125253D02*
X173875000Y-104875000D01*
X99750000Y-139250000D02*
X99500000Y-139000000D01*
X79670307Y-95599886D02*
X86849886Y-95599886D01*
X81319977Y-127800038D02*
X81319977Y-127180023D01*
X79639954Y-91110046D02*
X79639954Y-91800038D01*
X77680023Y-124819977D02*
X77680023Y-124200216D01*
X78750000Y-124099886D02*
X78649670Y-124200216D01*
X143450000Y-117625253D02*
X163261143Y-117625253D01*
X181875000Y-116625000D02*
X181875000Y-106511396D01*
X163125000Y-112125000D02*
X143450253Y-112125000D01*
X176750000Y-140250000D02*
X176250000Y-140250000D01*
X84250000Y-90500000D02*
X80250000Y-90500000D01*
X109050114Y-139224500D02*
X109762307Y-138512307D01*
X97899039Y-139149039D02*
X98250000Y-139500000D01*
X187875000Y-89625000D02*
X184625000Y-89625000D01*
X83500000Y-91800038D02*
X83500000Y-91250000D01*
X173875000Y-104875000D02*
X186625000Y-104875000D01*
X187375000Y-117125000D02*
X182375000Y-117125000D01*
X190875000Y-126625000D02*
X192125000Y-127875000D01*
X110635718Y-139750000D02*
X179250000Y-139750000D01*
X143450000Y-115125253D02*
X162874747Y-115125253D01*
X193875000Y-135125000D02*
X193875000Y-137625000D01*
X187875000Y-88125000D02*
X183988604Y-88125000D01*
X172875000Y-102375000D02*
X163125000Y-112125000D01*
X162875000Y-102875000D02*
X100875000Y-102875000D01*
X92680023Y-124200216D02*
X92680023Y-124819977D01*
X182375000Y-106375000D02*
X181375000Y-105375000D01*
X73819977Y-124200216D02*
X73819977Y-125069977D01*
X179250000Y-140250000D02*
X176750000Y-140250000D01*
X176250000Y-140250000D02*
X175750000Y-140250000D01*
X192125000Y-130125000D02*
X193875000Y-135125000D01*
X184875000Y-90125000D02*
X184375000Y-90625000D01*
X92680023Y-124819977D02*
X92250000Y-125250000D01*
X179250000Y-141750000D02*
X177250000Y-141750000D01*
X192125000Y-99875000D02*
X191375000Y-99125000D01*
X94000000Y-137750000D02*
X94000000Y-120000000D01*
X87500000Y-96250000D02*
X87500000Y-117250000D01*
X182375000Y-116375000D02*
X182625000Y-116625000D01*
X182875000Y-89238604D02*
X182875000Y-99488604D01*
X183375000Y-99625000D02*
X179625000Y-103375000D01*
X174375000Y-105875000D02*
X163124747Y-117125253D01*
X107250000Y-138500000D02*
X107339293Y-138589293D01*
X88000000Y-114000000D02*
X88000000Y-92000000D01*
X179488604Y-102875000D02*
X173102208Y-102875000D01*
X74500000Y-119000000D02*
X77250000Y-119000000D01*
X182375000Y-89102208D02*
X182375000Y-99352208D01*
X95750000Y-140500000D02*
X96199520Y-140949520D01*
X104250000Y-140500000D02*
X97876461Y-140500000D01*
X181875000Y-106511396D02*
X181238604Y-105875000D01*
X106250000Y-138500000D02*
X104250000Y-140500000D01*
X88000000Y-92000000D02*
X86500000Y-90500000D01*
X97250000Y-139873539D02*
X96975021Y-139598560D01*
X187625000Y-118011396D02*
X187625000Y-126125000D01*
X84500000Y-127000000D02*
X85500000Y-126000000D01*
X104750000Y-130000000D02*
X104750000Y-138000000D01*
X85500000Y-126000000D02*
X85500000Y-127480061D01*
X167125000Y-104625000D02*
X166875000Y-104875000D01*
X81519939Y-128000000D02*
X81319977Y-127800038D01*
X106250000Y-130000000D02*
X106250000Y-138500000D01*
X191375000Y-99125000D02*
X186125000Y-99125000D01*
X92500000Y-119250000D02*
X89500000Y-119250000D01*
X106750000Y-138635718D02*
X106750000Y-130000000D01*
X78750000Y-130099886D02*
X78750000Y-124099886D01*
X94500000Y-138250000D02*
X94000000Y-137750000D01*
X94127604Y-139149039D02*
X93100960Y-138122395D01*
X74250000Y-125500000D02*
X77000000Y-125500000D01*
X172625000Y-101875000D02*
X179215812Y-101875000D01*
X163000000Y-115000000D02*
X163375000Y-114625000D01*
X196375000Y-116625000D02*
X196875000Y-116125000D01*
X81319977Y-112800038D02*
X81319977Y-112180023D01*
X94750000Y-141250000D02*
X94899040Y-141399040D01*
X163124747Y-117125253D02*
X143450000Y-117125253D01*
X73819977Y-120300038D02*
X73819977Y-119680023D01*
X86500000Y-90500000D02*
X84250000Y-90500000D01*
X93100960Y-127850960D02*
X91500000Y-126250000D01*
X179875000Y-103875000D02*
X183875000Y-99875000D01*
X107250000Y-138771435D02*
X107250000Y-138500000D01*
X107250000Y-130000000D02*
X107250000Y-138500000D01*
X182125000Y-117625000D02*
X187238604Y-117625000D01*
X104021435Y-140000000D02*
X98750000Y-140000000D01*
X177250000Y-141750000D02*
X175750000Y-140250000D01*
X178375000Y-106875000D02*
X174875000Y-106875000D01*
X143450253Y-113125000D02*
X143450000Y-113125253D01*
X77750000Y-120230061D02*
X77680023Y-120300038D01*
X187625000Y-126125000D02*
X188125000Y-126625000D01*
X165125000Y-103875000D02*
X100875000Y-103875000D01*
X96975021Y-139598560D02*
X93941408Y-139598560D01*
X107339293Y-138589293D02*
X108214293Y-137714293D01*
X86849886Y-95599886D02*
X87500000Y-96250000D01*
X179250000Y-142250000D02*
X177250000Y-142250000D01*
X95298080Y-140048080D02*
X93755211Y-140048080D01*
X193875000Y-137625000D02*
X192875000Y-138625000D01*
X188125000Y-126625000D02*
X190875000Y-126625000D01*
X105250000Y-130000000D02*
X105250000Y-138135717D01*
X179250000Y-138750000D02*
X110271436Y-138750000D01*
X88819977Y-125430023D02*
X88819977Y-124200216D01*
X192125000Y-127875000D02*
X192125000Y-130125000D01*
X162374747Y-115625253D02*
X163000000Y-115000000D01*
X92201920Y-129951920D02*
X91500000Y-129250000D01*
X187875000Y-90125000D02*
X184875000Y-90125000D01*
X99500000Y-139000000D02*
X99199520Y-138699520D01*
X87500000Y-123500000D02*
X88200216Y-124200216D01*
X110500000Y-139250000D02*
X179250000Y-139250000D01*
X80250000Y-122599886D02*
X80250000Y-117770193D01*
X110000000Y-137750000D02*
X179250000Y-137750000D01*
X181875000Y-88875000D02*
X183625000Y-87125000D01*
X100500000Y-138500000D02*
X100250000Y-138250000D01*
X181102208Y-106375000D02*
X181375000Y-106647792D01*
X109250000Y-138000000D02*
X109750000Y-138000000D01*
X109072425Y-139949011D02*
X107500000Y-139949011D01*
X93050038Y-120300038D02*
X92680023Y-120300038D01*
X177250000Y-140750000D02*
X176750000Y-140250000D01*
X98750000Y-140000000D02*
X98250000Y-139500000D01*
X175750000Y-140250000D02*
X175250000Y-140250000D01*
X110271436Y-138750000D02*
X109072425Y-139949011D01*
X86299784Y-131700216D02*
X85180023Y-131700216D01*
X81500000Y-127000000D02*
X84500000Y-127000000D01*
X179250000Y-141250000D02*
X177250000Y-141250000D01*
X184125000Y-88625000D02*
X183375000Y-89375000D01*
X111500000Y-140250000D02*
X111000000Y-140750000D01*
X91500000Y-126250000D02*
X91250000Y-126250000D01*
%TD*%
M02*
