%TF.GenerationSoftware,KiCad,Pcbnew,7.0.5*%
%TF.CreationDate,2023-06-27T09:31:13+01:00*%
%TF.ProjectId,lbuttons,6c627574-746f-46e7-932e-6b696361645f,rev?*%
%TF.SameCoordinates,Original*%
%TF.FileFunction,Legend,Top*%
%TF.FilePolarity,Positive*%
%FSLAX46Y46*%
G04 Gerber Fmt 4.6, Leading zero omitted, Abs format (unit mm)*
G04 Created by KiCad (PCBNEW 7.0.5) date 2023-06-27 09:31:13*
%MOMM*%
%LPD*%
G01*
G04 APERTURE LIST*
%ADD10C,0.150000*%
%ADD11C,0.254000*%
%ADD12C,0.059995*%
%ADD13C,0.120000*%
G04 APERTURE END LIST*
D10*
X127000000Y-115500000D02*
G75*
G03*
X127000000Y-115500000I-2500000J0D01*
G01*
X147011905Y-126704819D02*
X147011905Y-125704819D01*
X147011905Y-125704819D02*
X147392857Y-125704819D01*
X147392857Y-125704819D02*
X147488095Y-125752438D01*
X147488095Y-125752438D02*
X147535714Y-125800057D01*
X147535714Y-125800057D02*
X147583333Y-125895295D01*
X147583333Y-125895295D02*
X147583333Y-126038152D01*
X147583333Y-126038152D02*
X147535714Y-126133390D01*
X147535714Y-126133390D02*
X147488095Y-126181009D01*
X147488095Y-126181009D02*
X147392857Y-126228628D01*
X147392857Y-126228628D02*
X147011905Y-126228628D01*
X147964286Y-126657200D02*
X148107143Y-126704819D01*
X148107143Y-126704819D02*
X148345238Y-126704819D01*
X148345238Y-126704819D02*
X148440476Y-126657200D01*
X148440476Y-126657200D02*
X148488095Y-126609580D01*
X148488095Y-126609580D02*
X148535714Y-126514342D01*
X148535714Y-126514342D02*
X148535714Y-126419104D01*
X148535714Y-126419104D02*
X148488095Y-126323866D01*
X148488095Y-126323866D02*
X148440476Y-126276247D01*
X148440476Y-126276247D02*
X148345238Y-126228628D01*
X148345238Y-126228628D02*
X148154762Y-126181009D01*
X148154762Y-126181009D02*
X148059524Y-126133390D01*
X148059524Y-126133390D02*
X148011905Y-126085771D01*
X148011905Y-126085771D02*
X147964286Y-125990533D01*
X147964286Y-125990533D02*
X147964286Y-125895295D01*
X147964286Y-125895295D02*
X148011905Y-125800057D01*
X148011905Y-125800057D02*
X148059524Y-125752438D01*
X148059524Y-125752438D02*
X148154762Y-125704819D01*
X148154762Y-125704819D02*
X148392857Y-125704819D01*
X148392857Y-125704819D02*
X148535714Y-125752438D01*
X148964286Y-126704819D02*
X148964286Y-125704819D01*
X148964286Y-125704819D02*
X149345238Y-125704819D01*
X149345238Y-125704819D02*
X149440476Y-125752438D01*
X149440476Y-125752438D02*
X149488095Y-125800057D01*
X149488095Y-125800057D02*
X149535714Y-125895295D01*
X149535714Y-125895295D02*
X149535714Y-126038152D01*
X149535714Y-126038152D02*
X149488095Y-126133390D01*
X149488095Y-126133390D02*
X149440476Y-126181009D01*
X149440476Y-126181009D02*
X149345238Y-126228628D01*
X149345238Y-126228628D02*
X148964286Y-126228628D01*
%TO.C,U1*%
X122058072Y-82054768D02*
X122058072Y-82864291D01*
X122058072Y-82864291D02*
X122105691Y-82959529D01*
X122105691Y-82959529D02*
X122153310Y-83007149D01*
X122153310Y-83007149D02*
X122248548Y-83054768D01*
X122248548Y-83054768D02*
X122439024Y-83054768D01*
X122439024Y-83054768D02*
X122534262Y-83007149D01*
X122534262Y-83007149D02*
X122581881Y-82959529D01*
X122581881Y-82959529D02*
X122629500Y-82864291D01*
X122629500Y-82864291D02*
X122629500Y-82054768D01*
X123629500Y-83054768D02*
X123058072Y-83054768D01*
X123343786Y-83054768D02*
X123343786Y-82054768D01*
X123343786Y-82054768D02*
X123248548Y-82197625D01*
X123248548Y-82197625D02*
X123153310Y-82292863D01*
X123153310Y-82292863D02*
X123058072Y-82340482D01*
%TO.C,U5*%
X123738095Y-118454819D02*
X123738095Y-119264342D01*
X123738095Y-119264342D02*
X123785714Y-119359580D01*
X123785714Y-119359580D02*
X123833333Y-119407200D01*
X123833333Y-119407200D02*
X123928571Y-119454819D01*
X123928571Y-119454819D02*
X124119047Y-119454819D01*
X124119047Y-119454819D02*
X124214285Y-119407200D01*
X124214285Y-119407200D02*
X124261904Y-119359580D01*
X124261904Y-119359580D02*
X124309523Y-119264342D01*
X124309523Y-119264342D02*
X124309523Y-118454819D01*
X125261904Y-118454819D02*
X124785714Y-118454819D01*
X124785714Y-118454819D02*
X124738095Y-118931009D01*
X124738095Y-118931009D02*
X124785714Y-118883390D01*
X124785714Y-118883390D02*
X124880952Y-118835771D01*
X124880952Y-118835771D02*
X125119047Y-118835771D01*
X125119047Y-118835771D02*
X125214285Y-118883390D01*
X125214285Y-118883390D02*
X125261904Y-118931009D01*
X125261904Y-118931009D02*
X125309523Y-119026247D01*
X125309523Y-119026247D02*
X125309523Y-119264342D01*
X125309523Y-119264342D02*
X125261904Y-119359580D01*
X125261904Y-119359580D02*
X125214285Y-119407200D01*
X125214285Y-119407200D02*
X125119047Y-119454819D01*
X125119047Y-119454819D02*
X124880952Y-119454819D01*
X124880952Y-119454819D02*
X124785714Y-119407200D01*
X124785714Y-119407200D02*
X124738095Y-119359580D01*
%TO.C,U2*%
X131238095Y-110554768D02*
X131238095Y-111364291D01*
X131238095Y-111364291D02*
X131285714Y-111459529D01*
X131285714Y-111459529D02*
X131333333Y-111507149D01*
X131333333Y-111507149D02*
X131428571Y-111554768D01*
X131428571Y-111554768D02*
X131619047Y-111554768D01*
X131619047Y-111554768D02*
X131714285Y-111507149D01*
X131714285Y-111507149D02*
X131761904Y-111459529D01*
X131761904Y-111459529D02*
X131809523Y-111364291D01*
X131809523Y-111364291D02*
X131809523Y-110554768D01*
X132238095Y-110650006D02*
X132285714Y-110602387D01*
X132285714Y-110602387D02*
X132380952Y-110554768D01*
X132380952Y-110554768D02*
X132619047Y-110554768D01*
X132619047Y-110554768D02*
X132714285Y-110602387D01*
X132714285Y-110602387D02*
X132761904Y-110650006D01*
X132761904Y-110650006D02*
X132809523Y-110745244D01*
X132809523Y-110745244D02*
X132809523Y-110840482D01*
X132809523Y-110840482D02*
X132761904Y-110983339D01*
X132761904Y-110983339D02*
X132190476Y-111554768D01*
X132190476Y-111554768D02*
X132809523Y-111554768D01*
%TO.C,U4*%
X116238095Y-110554768D02*
X116238095Y-111364291D01*
X116238095Y-111364291D02*
X116285714Y-111459529D01*
X116285714Y-111459529D02*
X116333333Y-111507149D01*
X116333333Y-111507149D02*
X116428571Y-111554768D01*
X116428571Y-111554768D02*
X116619047Y-111554768D01*
X116619047Y-111554768D02*
X116714285Y-111507149D01*
X116714285Y-111507149D02*
X116761904Y-111459529D01*
X116761904Y-111459529D02*
X116809523Y-111364291D01*
X116809523Y-111364291D02*
X116809523Y-110554768D01*
X117714285Y-110888101D02*
X117714285Y-111554768D01*
X117476190Y-110507149D02*
X117238095Y-111221434D01*
X117238095Y-111221434D02*
X117857142Y-111221434D01*
%TO.C,U3*%
X123738095Y-103054768D02*
X123738095Y-103864291D01*
X123738095Y-103864291D02*
X123785714Y-103959529D01*
X123785714Y-103959529D02*
X123833333Y-104007149D01*
X123833333Y-104007149D02*
X123928571Y-104054768D01*
X123928571Y-104054768D02*
X124119047Y-104054768D01*
X124119047Y-104054768D02*
X124214285Y-104007149D01*
X124214285Y-104007149D02*
X124261904Y-103959529D01*
X124261904Y-103959529D02*
X124309523Y-103864291D01*
X124309523Y-103864291D02*
X124309523Y-103054768D01*
X124690476Y-103054768D02*
X125309523Y-103054768D01*
X125309523Y-103054768D02*
X124976190Y-103435720D01*
X124976190Y-103435720D02*
X125119047Y-103435720D01*
X125119047Y-103435720D02*
X125214285Y-103483339D01*
X125214285Y-103483339D02*
X125261904Y-103530958D01*
X125261904Y-103530958D02*
X125309523Y-103626196D01*
X125309523Y-103626196D02*
X125309523Y-103864291D01*
X125309523Y-103864291D02*
X125261904Y-103959529D01*
X125261904Y-103959529D02*
X125214285Y-104007149D01*
X125214285Y-104007149D02*
X125119047Y-104054768D01*
X125119047Y-104054768D02*
X124833333Y-104054768D01*
X124833333Y-104054768D02*
X124738095Y-104007149D01*
X124738095Y-104007149D02*
X124690476Y-103959529D01*
D11*
%TO.C,U1*%
X124597854Y-87000000D02*
G75*
G03*
X124597854Y-87000000I-1778004J0D01*
G01*
X123327851Y-87000000D02*
G75*
G03*
X123327851Y-87000000I-508001J0D01*
G01*
D12*
X120449974Y-84600127D02*
G75*
G03*
X120449974Y-84600127I-29997J0D01*
G01*
D11*
X125219977Y-85800127D02*
X125219977Y-88300127D01*
X124018732Y-89400051D02*
X121620968Y-89400051D01*
X121620968Y-84599949D02*
X124018732Y-84599949D01*
X120419977Y-85731267D02*
X120419977Y-88300127D01*
%TO.C,U5*%
X122100000Y-121731267D02*
X122100000Y-124300127D01*
X123300991Y-120599949D02*
X125698755Y-120599949D01*
X125698755Y-125400051D02*
X123300991Y-125400051D01*
X126900000Y-121800127D02*
X126900000Y-124300127D01*
D12*
X122129997Y-120600127D02*
G75*
G03*
X122129997Y-120600127I-29997J0D01*
G01*
D11*
X125007874Y-123000000D02*
G75*
G03*
X125007874Y-123000000I-508001J0D01*
G01*
X126277877Y-123000000D02*
G75*
G03*
X126277877Y-123000000I-1778004J0D01*
G01*
%TO.C,U2*%
X129600000Y-114231267D02*
X129600000Y-116800127D01*
X130800991Y-113099949D02*
X133198755Y-113099949D01*
X133198755Y-117900051D02*
X130800991Y-117900051D01*
X134400000Y-114300127D02*
X134400000Y-116800127D01*
D12*
X129629997Y-113100127D02*
G75*
G03*
X129629997Y-113100127I-29997J0D01*
G01*
D11*
X132507874Y-115500000D02*
G75*
G03*
X132507874Y-115500000I-508001J0D01*
G01*
X133777877Y-115500000D02*
G75*
G03*
X133777877Y-115500000I-1778004J0D01*
G01*
%TO.C,U4*%
X114600000Y-114231267D02*
X114600000Y-116800127D01*
X115800991Y-113099949D02*
X118198755Y-113099949D01*
X118198755Y-117900051D02*
X115800991Y-117900051D01*
X119400000Y-114300127D02*
X119400000Y-116800127D01*
D12*
X114629997Y-113100127D02*
G75*
G03*
X114629997Y-113100127I-29997J0D01*
G01*
D11*
X117507874Y-115500000D02*
G75*
G03*
X117507874Y-115500000I-508001J0D01*
G01*
X118777877Y-115500000D02*
G75*
G03*
X118777877Y-115500000I-1778004J0D01*
G01*
D13*
%TO.C,C2*%
X219250000Y-130500000D02*
X219250000Y-136000000D01*
D11*
%TO.C,U3*%
X122100000Y-106731267D02*
X122100000Y-109300127D01*
X123300991Y-105599949D02*
X125698755Y-105599949D01*
X125698755Y-110400051D02*
X123300991Y-110400051D01*
X126900000Y-106800127D02*
X126900000Y-109300127D01*
D12*
X122129997Y-105600127D02*
G75*
G03*
X122129997Y-105600127I-29997J0D01*
G01*
D11*
X125007874Y-108000000D02*
G75*
G03*
X125007874Y-108000000I-508001J0D01*
G01*
X126277877Y-108000000D02*
G75*
G03*
X126277877Y-108000000I-1778004J0D01*
G01*
D13*
%TO.C,C1*%
X145500000Y-124500000D02*
X151000000Y-124500000D01*
%TD*%
M02*
