%TF.GenerationSoftware,KiCad,Pcbnew,7.0.5*%
%TF.CreationDate,2023-06-27T09:31:13+01:00*%
%TF.ProjectId,lbuttons,6c627574-746f-46e7-932e-6b696361645f,rev?*%
%TF.SameCoordinates,Original*%
%TF.FileFunction,Copper,L1,Top*%
%TF.FilePolarity,Positive*%
%FSLAX46Y46*%
G04 Gerber Fmt 4.6, Leading zero omitted, Abs format (unit mm)*
G04 Created by KiCad (PCBNEW 7.0.5) date 2023-06-27 09:31:13*
%MOMM*%
%LPD*%
G01*
G04 APERTURE LIST*
%TA.AperFunction,SMDPad,CuDef*%
%ADD10R,1.000000X0.900000*%
%TD*%
%TA.AperFunction,SMDPad,CuDef*%
%ADD11R,2.000000X0.250000*%
%TD*%
%TA.AperFunction,SMDPad,CuDef*%
%ADD12R,0.250000X2.000000*%
%TD*%
%TA.AperFunction,ViaPad*%
%ADD13C,0.800000*%
%TD*%
%TA.AperFunction,Conductor*%
%ADD14C,0.250000*%
%TD*%
G04 APERTURE END LIST*
D10*
%TO.P,U1,4,4*%
%TO.N,GND*%
X124750000Y-88950216D03*
%TO.P,U1,3,3*%
%TO.N,/l1*%
X124750000Y-85050038D03*
%TO.P,U1,2,2*%
%TO.N,GND*%
X120889954Y-88950216D03*
%TO.P,U1,1,1*%
%TO.N,/l1*%
X120889954Y-85050038D03*
%TD*%
%TO.P,U5,1,1*%
%TO.N,/down*%
X122569977Y-121050038D03*
%TO.P,U5,2,2*%
%TO.N,GND*%
X122569977Y-124950216D03*
%TO.P,U5,3,3*%
%TO.N,/down*%
X126430023Y-121050038D03*
%TO.P,U5,4,4*%
%TO.N,GND*%
X126430023Y-124950216D03*
%TD*%
%TO.P,U2,1,1*%
%TO.N,/right*%
X130069977Y-113550038D03*
%TO.P,U2,2,2*%
%TO.N,GND*%
X130069977Y-117450216D03*
%TO.P,U2,3,3*%
%TO.N,/right*%
X133930023Y-113550038D03*
%TO.P,U2,4,4*%
%TO.N,GND*%
X133930023Y-117450216D03*
%TD*%
%TO.P,U4,1,1*%
%TO.N,/left*%
X115069977Y-113550038D03*
%TO.P,U4,2,2*%
%TO.N,GND*%
X115069977Y-117450216D03*
%TO.P,U4,3,3*%
%TO.N,/left*%
X118930023Y-113550038D03*
%TO.P,U4,4,4*%
%TO.N,GND*%
X118930023Y-117450216D03*
%TD*%
D11*
%TO.P,C2,1,1*%
%TO.N,/l1*%
X220500000Y-131000000D03*
%TO.P,C2,2,2*%
%TO.N,/right*%
X220500000Y-131500000D03*
%TO.P,C2,3,3*%
%TO.N,/up*%
X220500000Y-132000000D03*
%TO.P,C2,4,4*%
%TO.N,/left*%
X220500000Y-132500000D03*
%TO.P,C2,5,5*%
%TO.N,/down*%
X220500000Y-133000000D03*
%TO.P,C2,6,6*%
%TO.N,GND*%
X220500000Y-133500000D03*
%TO.P,C2,7,7*%
X220500000Y-134000000D03*
%TO.P,C2,8,8*%
X220500000Y-134500000D03*
%TO.P,C2,9,9*%
X220500000Y-135000000D03*
%TO.P,C2,10,10*%
X220500000Y-135500000D03*
%TD*%
D10*
%TO.P,U3,1,1*%
%TO.N,/up*%
X122569977Y-106050038D03*
%TO.P,U3,2,2*%
%TO.N,GND*%
X122569977Y-109950216D03*
%TO.P,U3,3,3*%
%TO.N,/up*%
X126430023Y-106050038D03*
%TO.P,U3,4,4*%
%TO.N,GND*%
X126430023Y-109950216D03*
%TD*%
D12*
%TO.P,C1,1,1*%
%TO.N,/l1*%
X146000000Y-123250000D03*
%TO.P,C1,2,2*%
%TO.N,/right*%
X146500000Y-123250000D03*
%TO.P,C1,3,3*%
%TO.N,/up*%
X147000000Y-123250000D03*
%TO.P,C1,4,4*%
%TO.N,/left*%
X147500000Y-123250000D03*
%TO.P,C1,5,5*%
%TO.N,/down*%
X148000000Y-123250000D03*
%TO.P,C1,6,6*%
%TO.N,GND*%
X148500000Y-123250000D03*
%TO.P,C1,7,7*%
X149000000Y-123250000D03*
%TO.P,C1,8,8*%
X149500000Y-123250000D03*
%TO.P,C1,9,9*%
X150000000Y-123250000D03*
%TO.P,C1,10,10*%
X150500000Y-123250000D03*
%TD*%
D13*
%TO.N,/l1*%
X150500000Y-131250000D03*
X141750000Y-131750000D03*
%TO.N,/right*%
X140750000Y-132250000D03*
X149750000Y-132474500D03*
%TO.N,/up*%
X148750000Y-133199011D03*
X126500000Y-104000000D03*
X139500000Y-132750000D03*
X132500000Y-119500000D03*
%TO.N,/left*%
X132500000Y-121000000D03*
X119000000Y-111750000D03*
X147892691Y-133923511D03*
X138500000Y-133123539D03*
%TO.N,/down*%
X147000000Y-134750000D03*
X137000000Y-133750000D03*
X132750000Y-122500000D03*
X126750000Y-119250000D03*
%TO.N,GND*%
X136000000Y-134500000D03*
X152250000Y-134000000D03*
%TD*%
D14*
%TO.N,/l1*%
X124750000Y-84500000D02*
X125500000Y-83750000D01*
X124750000Y-85050038D02*
X124750000Y-84500000D01*
X125500000Y-83750000D02*
X121500000Y-83750000D01*
X127750000Y-83750000D02*
X125500000Y-83750000D01*
%TO.N,GND*%
X128200216Y-109950216D02*
X128750000Y-110500000D01*
X126430023Y-109950216D02*
X128200216Y-109950216D01*
X128750000Y-110500000D02*
X128750000Y-116750000D01*
X128750000Y-89500000D02*
X128750000Y-110500000D01*
X133500000Y-118500000D02*
X130250000Y-118500000D01*
X130250000Y-118500000D02*
X130069977Y-118680023D01*
X133930023Y-118069977D02*
X133500000Y-118500000D01*
X133930023Y-117450216D02*
X133930023Y-118069977D01*
%TO.N,/right*%
X130069977Y-113180023D02*
X130069977Y-113550038D01*
X130750000Y-112500000D02*
X130069977Y-113180023D01*
X133750000Y-112500000D02*
X130750000Y-112500000D01*
X133930023Y-113550038D02*
X133930023Y-112680023D01*
X133930023Y-112680023D02*
X133750000Y-112500000D01*
%TO.N,GND*%
X126430023Y-125569977D02*
X126430023Y-124950216D01*
X126000000Y-126000000D02*
X126430023Y-125569977D01*
X122569977Y-125569977D02*
X123000000Y-126000000D01*
X122569977Y-124950216D02*
X122569977Y-125569977D01*
X123000000Y-126000000D02*
X126000000Y-126000000D01*
%TO.N,/down*%
X125750000Y-120250000D02*
X126750000Y-119250000D01*
X122750000Y-120250000D02*
X125750000Y-120250000D01*
X122569977Y-120430023D02*
X122750000Y-120250000D01*
X122569977Y-121050038D02*
X122569977Y-120430023D01*
%TO.N,GND*%
X118930023Y-118069977D02*
X118930023Y-117450216D01*
X115069977Y-118319977D02*
X115500000Y-118750000D01*
X115500000Y-118750000D02*
X118250000Y-118750000D01*
X118250000Y-118750000D02*
X118930023Y-118069977D01*
X115069977Y-117450216D02*
X115069977Y-118319977D01*
%TO.N,/left*%
X118500000Y-112250000D02*
X119000000Y-111750000D01*
X115750000Y-112250000D02*
X118500000Y-112250000D01*
X115069977Y-112930023D02*
X115750000Y-112250000D01*
X115069977Y-113550038D02*
X115069977Y-112930023D01*
%TO.N,/up*%
X125250000Y-105250000D02*
X126500000Y-104000000D01*
X122750000Y-105250000D02*
X125250000Y-105250000D01*
X122569977Y-105430023D02*
X122750000Y-105250000D01*
X122569977Y-106050038D02*
X122569977Y-105430023D01*
%TO.N,GND*%
X129450216Y-117450216D02*
X130069977Y-117450216D01*
X128099886Y-88849886D02*
X128750000Y-89500000D01*
X120920307Y-88849886D02*
X128099886Y-88849886D01*
X120819977Y-88950216D02*
X120920307Y-88849886D01*
X128750000Y-116750000D02*
X129450216Y-117450216D01*
X119899670Y-117450216D02*
X118930023Y-117450216D01*
X120000000Y-117349886D02*
X119899670Y-117450216D01*
X121600330Y-124950216D02*
X122569977Y-124950216D01*
%TO.N,/right*%
X134300038Y-113550038D02*
X133930023Y-113550038D01*
X134800480Y-131186197D02*
X134800480Y-114050480D01*
X140449520Y-131949520D02*
X135563802Y-131949520D01*
X140750000Y-132250000D02*
X140449520Y-131949520D01*
X135563802Y-131949520D02*
X134800480Y-131186197D01*
X134800480Y-114050480D02*
X134300038Y-113550038D01*
%TO.N,/l1*%
X120889954Y-84360046D02*
X120889954Y-85050038D01*
X121500000Y-83750000D02*
X120889954Y-84360046D01*
X129250000Y-106000000D02*
X129250000Y-85250000D01*
X135250000Y-112000000D02*
X129250000Y-106000000D01*
X129250000Y-85250000D02*
X127750000Y-83750000D01*
X135750000Y-131500000D02*
X135250000Y-131000000D01*
X135250000Y-131000000D02*
X135250000Y-112000000D01*
X141750000Y-131750000D02*
X141500000Y-131500000D01*
X141500000Y-131500000D02*
X135750000Y-131500000D01*
%TO.N,/down*%
X122769939Y-121250000D02*
X122569977Y-121050038D01*
X126430023Y-121050038D02*
X126230061Y-121250000D01*
%TO.N,/l1*%
X150500000Y-131250000D02*
X151000000Y-131250000D01*
X146000000Y-123250000D02*
X146000000Y-131250000D01*
X146000000Y-131250000D02*
X145500000Y-131750000D01*
X151000000Y-131250000D02*
X151250000Y-131000000D01*
X151250000Y-131000000D02*
X220500000Y-131000000D01*
X145500000Y-131750000D02*
X141750000Y-131750000D01*
%TO.N,/right*%
X151012307Y-131762307D02*
X151123411Y-131762307D01*
X145385717Y-132500000D02*
X141000000Y-132500000D01*
X149750000Y-132474500D02*
X150300114Y-132474500D01*
X146500000Y-123250000D02*
X146500000Y-131385717D01*
X146500000Y-131385717D02*
X145385717Y-132500000D01*
X141000000Y-132500000D02*
X140750000Y-132250000D01*
X151123411Y-131762307D02*
X151385718Y-131500000D01*
X151385718Y-131500000D02*
X220500000Y-131500000D01*
X150300114Y-132474500D02*
X151012307Y-131762307D01*
%TO.N,/up*%
X150322425Y-133199011D02*
X148750000Y-133199011D01*
X134350960Y-121100960D02*
X132750000Y-119500000D01*
X146978566Y-131521434D02*
X146949520Y-131550480D01*
X147000000Y-131521434D02*
X146978566Y-131521434D01*
X139149039Y-132399039D02*
X139500000Y-132750000D01*
X146949520Y-131571915D02*
X145271435Y-133250000D01*
X135377604Y-132399039D02*
X139149039Y-132399039D01*
X126500000Y-105980061D02*
X126430023Y-106050038D01*
X135377604Y-132399039D02*
X134350960Y-131372395D01*
X132750000Y-119500000D02*
X132500000Y-119500000D01*
X134350960Y-131372395D02*
X134350960Y-121100960D01*
X140000000Y-133250000D02*
X139500000Y-132750000D01*
X151521436Y-132000000D02*
X150322425Y-133199011D01*
X126500000Y-104000000D02*
X126500000Y-105980061D01*
X147000000Y-123250000D02*
X147000000Y-131521434D01*
X145271435Y-133250000D02*
X140000000Y-133250000D01*
X146949520Y-131550480D02*
X146949520Y-131571915D01*
X220500000Y-132000000D02*
X151521436Y-132000000D01*
%TO.N,/left*%
X119000000Y-113480061D02*
X118930023Y-113550038D01*
X150326489Y-133923511D02*
X151750000Y-132500000D01*
X119000000Y-111750000D02*
X119000000Y-113480061D01*
X133901440Y-131558592D02*
X133901440Y-122401440D01*
X147892691Y-133923511D02*
X150326489Y-133923511D01*
X135191408Y-132848560D02*
X133901440Y-131558592D01*
X138225021Y-132848560D02*
X135191408Y-132848560D01*
X147500000Y-123250000D02*
X147500000Y-131750000D01*
X151750000Y-132500000D02*
X220500000Y-132500000D01*
X139126461Y-133750000D02*
X138500000Y-133123539D01*
X147500000Y-131750000D02*
X145500000Y-133750000D01*
X133901440Y-122401440D02*
X132500000Y-121000000D01*
X138500000Y-133123539D02*
X138225021Y-132848560D01*
X145500000Y-133750000D02*
X139126461Y-133750000D01*
%TO.N,/down*%
X150135718Y-134750000D02*
X151885718Y-133000000D01*
X137000000Y-133750000D02*
X136548080Y-133298080D01*
X133451920Y-123201920D02*
X132750000Y-122500000D01*
X126750000Y-120730061D02*
X126430023Y-121050038D01*
X147000000Y-134750000D02*
X150135718Y-134750000D01*
X135005211Y-133298080D02*
X133451920Y-131744789D01*
X126750000Y-119250000D02*
X126750000Y-120730061D01*
X133451920Y-131744789D02*
X133451920Y-123201920D01*
X136548080Y-133298080D02*
X135005211Y-133298080D01*
X151885718Y-133000000D02*
X220500000Y-133000000D01*
X137000000Y-133750000D02*
X137449520Y-134199520D01*
X148000000Y-131885718D02*
X148000000Y-123250000D01*
X137449520Y-134199520D02*
X145686197Y-134199520D01*
X145686197Y-134199520D02*
X148000000Y-131885718D01*
%TO.N,GND*%
X135247600Y-133747600D02*
X134819014Y-133747600D01*
X220500000Y-135500000D02*
X218500000Y-135500000D01*
X127549784Y-124950216D02*
X126430023Y-124950216D01*
X130069977Y-118680023D02*
X130069977Y-117450216D01*
X149464293Y-130964293D02*
X150500000Y-129928585D01*
X218500000Y-135500000D02*
X216500000Y-133500000D01*
X149000000Y-123250000D02*
X149000000Y-131428586D01*
X148589293Y-131839293D02*
X149464293Y-130964293D01*
X128500000Y-120250000D02*
X128500000Y-124000000D01*
X134819014Y-133747600D02*
X133000000Y-131928586D01*
X128750000Y-120000000D02*
X128500000Y-120250000D01*
X136000000Y-134500000D02*
X135247600Y-133747600D01*
X121500000Y-111020193D02*
X122569977Y-109950216D01*
X136000000Y-134500000D02*
X136149040Y-134649040D01*
X128500000Y-124000000D02*
X127549784Y-124950216D01*
X149500000Y-123250000D02*
X149500000Y-130928586D01*
X220500000Y-134000000D02*
X218500000Y-134000000D01*
X150000000Y-123250000D02*
X150000000Y-130428586D01*
X133000000Y-131928586D02*
X133000000Y-124250000D01*
X152750000Y-133500000D02*
X216500000Y-133500000D01*
X218500000Y-134500000D02*
X217500000Y-133500000D01*
X148500000Y-131750000D02*
X148589293Y-131839293D01*
X218500000Y-134000000D02*
X218000000Y-133500000D01*
X220500000Y-134500000D02*
X218500000Y-134500000D01*
X220500000Y-135000000D02*
X218500000Y-135000000D01*
X218500000Y-135000000D02*
X217000000Y-133500000D01*
X220500000Y-133500000D02*
X218000000Y-133500000D01*
X148500000Y-123250000D02*
X148500000Y-131750000D01*
X136149040Y-134649040D02*
X145872395Y-134649040D01*
X120000000Y-117349886D02*
X121500000Y-115849886D01*
X152750000Y-133500000D02*
X152250000Y-134000000D01*
X145872395Y-134649040D02*
X148500000Y-132021435D01*
X121600330Y-124950216D02*
X120000000Y-123349886D01*
X150500000Y-123250000D02*
X150500000Y-129928585D01*
X217000000Y-133500000D02*
X216500000Y-133500000D01*
X128750000Y-120000000D02*
X130069977Y-118680023D01*
X148500000Y-132021435D02*
X148500000Y-131750000D01*
X115170307Y-117349886D02*
X115069977Y-117450216D01*
X217500000Y-133500000D02*
X217000000Y-133500000D01*
X120000000Y-123349886D02*
X120000000Y-117349886D01*
X133000000Y-124250000D02*
X128750000Y-120000000D01*
X218000000Y-133500000D02*
X217500000Y-133500000D01*
X121500000Y-115849886D02*
X121500000Y-111020193D01*
%TD*%
M02*
