%TF.GenerationSoftware,KiCad,Pcbnew,7.0.5*%
%TF.CreationDate,2023-06-27T09:31:13+01:00*%
%TF.ProjectId,lbuttons,6c627574-746f-46e7-932e-6b696361645f,rev?*%
%TF.SameCoordinates,Original*%
%TF.FileFunction,Copper,L2,Bot*%
%TF.FilePolarity,Positive*%
%FSLAX46Y46*%
G04 Gerber Fmt 4.6, Leading zero omitted, Abs format (unit mm)*
G04 Created by KiCad (PCBNEW 7.0.5) date 2023-06-27 09:31:13*
%MOMM*%
%LPD*%
G01*
G04 APERTURE LIST*
%TA.AperFunction,ViaPad*%
%ADD10C,0.800000*%
%TD*%
%TA.AperFunction,Conductor*%
%ADD11C,0.250000*%
%TD*%
G04 APERTURE END LIST*
D10*
%TO.N,/l1*%
X150500000Y-131250000D03*
X141750000Y-131750000D03*
%TO.N,/right*%
X140750000Y-132250000D03*
X149750000Y-132474500D03*
%TO.N,/up*%
X148750000Y-133199011D03*
X126500000Y-104000000D03*
X139500000Y-132750000D03*
X132500000Y-119500000D03*
%TO.N,/left*%
X132500000Y-121000000D03*
X119000000Y-111750000D03*
X147892691Y-133923511D03*
X138500000Y-133123539D03*
%TO.N,/down*%
X147000000Y-134750000D03*
X137000000Y-133750000D03*
X132750000Y-122500000D03*
X126750000Y-119250000D03*
%TO.N,GND*%
X136000000Y-134500000D03*
X152250000Y-134000000D03*
%TD*%
D11*
%TO.N,/l1*%
X141750000Y-131750000D02*
X150000000Y-131750000D01*
X150000000Y-131750000D02*
X150500000Y-131250000D01*
%TO.N,/right*%
X140974511Y-132474511D02*
X149749989Y-132474511D01*
X149749989Y-132474511D02*
X149750000Y-132474500D01*
X140750000Y-132250000D02*
X140974511Y-132474511D01*
%TO.N,/up*%
X132500000Y-119500000D02*
X128000000Y-115000000D01*
X139500000Y-132750000D02*
X139949011Y-133199011D01*
X139949011Y-133199011D02*
X148750000Y-133199011D01*
X128000000Y-105000000D02*
X127000000Y-104000000D01*
X128000000Y-115000000D02*
X128000000Y-105000000D01*
X127000000Y-104000000D02*
X126500000Y-104000000D01*
%TO.N,/left*%
X139299972Y-133923511D02*
X138500000Y-133123539D01*
X132500000Y-121000000D02*
X130250000Y-121000000D01*
X121000000Y-111750000D02*
X119000000Y-111750000D01*
X130250000Y-121000000D02*
X123250000Y-114000000D01*
X139299972Y-133923511D02*
X147892691Y-133923511D01*
X123250000Y-114000000D02*
X121000000Y-111750000D01*
%TO.N,/down*%
X130000000Y-122500000D02*
X126750000Y-119250000D01*
X138500000Y-134750000D02*
X147000000Y-134750000D01*
X132750000Y-122500000D02*
X130000000Y-122500000D01*
X137000000Y-133750000D02*
X137500000Y-133750000D01*
X137500000Y-133750000D02*
X138500000Y-134750000D01*
%TO.N,GND*%
X136000000Y-134500000D02*
X136750000Y-134500000D01*
X150750000Y-135500000D02*
X152250000Y-134000000D01*
X137750000Y-135500000D02*
X150750000Y-135500000D01*
X136750000Y-134500000D02*
X137750000Y-135500000D01*
%TD*%
M02*
