%TF.GenerationSoftware,KiCad,Pcbnew,7.0.5*%
%TF.CreationDate,2023-06-27T09:31:13+01:00*%
%TF.ProjectId,lbuttons,6c627574-746f-46e7-932e-6b696361645f,rev?*%
%TF.SameCoordinates,Original*%
%TF.FileFunction,Paste,Top*%
%TF.FilePolarity,Positive*%
%FSLAX46Y46*%
G04 Gerber Fmt 4.6, Leading zero omitted, Abs format (unit mm)*
G04 Created by KiCad (PCBNEW 7.0.5) date 2023-06-27 09:31:13*
%MOMM*%
%LPD*%
G01*
G04 APERTURE LIST*
%ADD10R,1.000000X0.900000*%
%ADD11R,2.000000X0.250000*%
%ADD12R,0.250000X2.000000*%
G04 APERTURE END LIST*
D10*
%TO.C,U1*%
X124750000Y-88950216D03*
X124750000Y-85050038D03*
X120889954Y-88950216D03*
X120889954Y-85050038D03*
%TD*%
%TO.C,U5*%
X122569977Y-121050038D03*
X122569977Y-124950216D03*
X126430023Y-121050038D03*
X126430023Y-124950216D03*
%TD*%
%TO.C,U2*%
X130069977Y-113550038D03*
X130069977Y-117450216D03*
X133930023Y-113550038D03*
X133930023Y-117450216D03*
%TD*%
%TO.C,U4*%
X115069977Y-113550038D03*
X115069977Y-117450216D03*
X118930023Y-113550038D03*
X118930023Y-117450216D03*
%TD*%
D11*
%TO.C,C2*%
X220500000Y-131000000D03*
X220500000Y-131500000D03*
X220500000Y-132000000D03*
X220500000Y-132500000D03*
X220500000Y-133000000D03*
X220500000Y-133500000D03*
X220500000Y-134000000D03*
X220500000Y-134500000D03*
X220500000Y-135000000D03*
X220500000Y-135500000D03*
%TD*%
D10*
%TO.C,U3*%
X122569977Y-106050038D03*
X122569977Y-109950216D03*
X126430023Y-106050038D03*
X126430023Y-109950216D03*
%TD*%
D12*
%TO.C,C1*%
X146000000Y-123250000D03*
X146500000Y-123250000D03*
X147000000Y-123250000D03*
X147500000Y-123250000D03*
X148000000Y-123250000D03*
X148500000Y-123250000D03*
X149000000Y-123250000D03*
X149500000Y-123250000D03*
X150000000Y-123250000D03*
X150500000Y-123250000D03*
%TD*%
M02*
